<?xml version="1.0" standalone="no"?>
<!DOCTYPE svg PUBLIC "-//W3C//DTD SVG 1.1//EN" "http://www.w3.org/Graphics/SVG/1.1/DTD/svg11.dtd" >
<svg xmlns="http://www.w3.org/2000/svg">
<metadata>
Created by FontPrep 20130207 at Mon Feb  1 21:44:34 2016
 By Steve Graegert
Copyright (c) 1988, 1990, 1993, 2003 Linotype Library GmbH, www.linotype.com. All rights reserved. Copyright (c) 1988, 1990, 1993 Adobe Systems Incorporated. All Rights Reserved.
</metadata>
<defs>
<font id="10f44b60f6c55dbfcec6b579a317a39f" horiz-adv-x='1024' >
  <font-face 
    font-family="HelveticaNeueLTPro-LtIt"
    font-weight="300"
    font-style="italic"
    font-stretch="normal"
    units-per-em="2048"
    panose-1="2 11 4 3 2 2 2 9 2 4"
    ascent="1462"
    descent="-586"
    x-height="1057"
    cap-height="1462"
    bbox="-338 -438 2251 1964"
    underline-thickness="102"
    underline-position="-102"
    slope="-12"
    unicode-range="U+000D-FB02"
  />
<missing-glyph horiz-adv-x="1048" 
d="M1049 1470v-1470h-1049v1470h1049zM946 102v1264h-844v-1264h844zM524 1145q-145 0 -168 -195l-102 17q14 141 88 211t186 70t185 -74q72 -74 71 -195q0 -70 -26 -123t-103 -122q-76 -68 -88 -108t-12 -147h-94l-4 35q1 115 29 169t92 118q63 59 82 94q20 35 20 93
t-46 107q-46 50 -110 50zM455 240v137h114v-137h-114z" />
    <glyph glyph-name=".notdef" horiz-adv-x="1048" 
d="M1049 1470v-1470h-1049v1470h1049zM946 102v1264h-844v-1264h844zM524 1145q-145 0 -168 -195l-102 17q14 141 88 211t186 70t185 -74q72 -74 71 -195q0 -70 -26 -123t-103 -122q-76 -68 -88 -108t-12 -147h-94l-4 35q1 115 29 169t92 118q63 59 82 94q20 35 20 93
t-46 107q-46 50 -110 50zM455 240v137h114v-137h-114z" />
    <glyph glyph-name=".null" horiz-adv-x="1024" 
 />
    <glyph glyph-name=".null" horiz-adv-x="1024" 
 />
    <glyph glyph-name="nonmarkingreturn" horiz-adv-x="681" 
 />
    <glyph glyph-name="CR" unicode="&#xd;" horiz-adv-x="0" 
 />
    <glyph glyph-name="space" unicode=" " horiz-adv-x="569" 
 />
    <glyph glyph-name="exclam" unicode="!" horiz-adv-x="569" 
d="M219 0h-172l47 217h174zM250 365h-78l109 643l98 454h137l-98 -456z" />
    <glyph glyph-name="quotedbl" unicode="&#x22;" horiz-adv-x="757" 
d="M281 965v497h118v-497h-118zM537 965v497h118v-497h-118z" />
    <glyph glyph-name="numbersign" unicode="#" 
d="M1018 549l-21 -92h-206l-64 -457h-102l63 457h-289l-63 -457h-103l64 457h-225l20 92h217l45 319h-225l21 93h217l63 454h102l-63 -454h289l63 454h103l-64 -454h215l-20 -93h-207l-45 -319h215zM745 868h-288l-45 -319h288z" />
    <glyph glyph-name="dollar" unicode="$" 
d="M274 1081q0 -104 65 -155t181 -86l29 -9l115 543q-162 0 -276 -70t-114 -223zM514 88q162 0 289 81t127 232t-145 217q-59 28 -177 62l-125 -590q6 -2 31 -2zM1069 440q0 -68 -12 -122t-50 -118q-37 -64 -97 -114q-60 -49 -166 -83t-240 -34h-25q-16 0 -22 2l-37 -176
h-92l41 187q-201 32 -315 156t-101 343h139q-14 -338 301 -381l129 607l-98 28q-289 82 -289 340q0 215 161 317t392 101l23 106h92l-25 -114q192 -27 300 -135t96 -314h-140q-2 160 -70 236q-69 76 -210 94l-119 -561l41 -12q161 -46 277 -122q116 -75 116 -231z" />
    <glyph glyph-name="percent" unicode="%" horiz-adv-x="1705" 
d="M213 -66l1167 1547h113l-1169 -1547h-111zM793 1161q0 -271 -167 -415q-89 -76 -216 -76t-200 79t-73 203q0 276 170 418q90 76 213 76t198 -79t75 -206zM419 762q85 0 149 66q116 119 116 323q0 203 -172 203q-86 0 -150 -70q-119 -131 -116 -330q0 -80 44 -136t129 -56
zM1569 461q0 -271 -167 -415q-89 -76 -216 -77q-127 0 -200 79t-73 204q0 126 40 234t130 184t213 76t198 -80q75 -78 75 -205zM1020 256q0 -82 44 -138t129 -57q85 0 149 67q118 122 117 324t-173 201q-86 0 -149 -69q-117 -130 -117 -328z" />
    <glyph glyph-name="ampersand" unicode="&#x26;" horiz-adv-x="1251" 
d="M672 1354q-88 0 -153 -60t-65 -154t115 -280q6 4 75 42t91 57q22 20 49 41t56 70q30 48 30 118t-55 118t-143 48zM164 336q0 -106 80 -182t192 -76q223 0 375 188l-289 453q-139 -66 -235 -140q-123 -97 -123 -243zM446 -31q-184 1 -298 99t-114 277t142 292
q72 57 130 91t159 81q-49 72 -72 110q-23 39 -45 103t-22 127q0 139 101 226t241 87t236 -72q95 -72 95 -188q0 -117 -80 -219q-62 -77 -292 -209l262 -407q67 85 112 278h129q-47 -217 -174 -383l170 -262h-145l-111 172q-164 -203 -424 -203z" />
    <glyph glyph-name="quotesingle" unicode="'" horiz-adv-x="569" 
d="M313 965v497h119v-497h-119z" />
    <glyph glyph-name="parenleft" unicode="(" horiz-adv-x="530" 
d="M219 207q0 -258 100 -598h-88q-150 422 -131 776q31 606 500 1108h107q-248 -305 -368 -606t-120 -680z" />
    <glyph glyph-name="parenright" unicode=")" horiz-adv-x="530" 
d="M178 1493h88q150 -422 131 -776q-31 -602 -499 -1108h-107q248 299 368 603t120 683q-1 258 -101 598z" />
    <glyph glyph-name="asterisk" unicode="*" horiz-adv-x="720" 
d="M354 1149l-207 113l43 71l209 -116l54 245h79l-51 -254l238 49l10 -77l-235 -52l122 -208l-77 -39l-121 217l-176 -189l-58 56z" />
    <glyph glyph-name="plus" unicode="+" horiz-adv-x="1228" 
d="M561 569v461h109v-461h460v-108h-460v-461h-109v461h-461v108h461z" />
    <glyph glyph-name="comma" unicode="," horiz-adv-x="569" 
d="M-25 -281l17 82q45 12 75 46t41 66t25 87h-86l49 217h172l-67 -287q-25 -96 -75 -141t-151 -70z" />
    <glyph glyph-name="hyphen" unicode="-" horiz-adv-x="757" 
d="M78 504l24 119h514l-24 -119h-514z" />
    <glyph glyph-name="period" unicode="." horiz-adv-x="569" 
d="M219 0h-172l47 217h174z" />
    <glyph glyph-name="slash" unicode="/" horiz-adv-x="681" 
d="M801 1493l-842 -1524h-121l842 1524h121z" />
    <glyph glyph-name="zero" unicode="0" 
d="M442 -31q-110 0 -190 45q-197 112 -201 486q0 240 95 488q50 128 121 230t179 164q108 63 236 64q215 0 310 -139t95 -363q0 -328 -144 -630q-73 -153 -203 -249t-298 -96zM958 958q0 379 -290 379q-122 0 -222 -97q-100 -98 -154 -242q-112 -300 -112 -539
q0 -381 293 -381q125 0 224 97t153 241q108 294 108 542z" />
    <glyph glyph-name="one" unicode="1" 
d="M274 1075l27 103q328 49 455 256h98l-307 -1434h-129l254 1190q-140 -74 -398 -115z" />
    <glyph glyph-name="two" unicode="2" 
d="M642 1446q194 0 311 -98q118 -98 118 -272q1 -174 -107 -289q-108 -116 -307 -224q-31 -18 -107 -60q-222 -123 -306 -208q-85 -85 -117 -176h801l-23 -119h-928q11 241 226 411q98 76 298 190q201 114 273 169q168 135 168 311q0 125 -85 191t-210 65q-160 1 -253 -109
t-101 -274h-129q8 216 146 354t332 138z" />
    <glyph glyph-name="three" unicode="3" 
d="M462 78q164 0 276 100t112 246t-89 210t-231 64h-69l22 109h84q371 0 371 280q0 117 -81 184t-198 66q-153 0 -243 -90t-115 -250h-129q39 213 161 331q121 118 311 118t306 -93t117 -261q0 -134 -84 -228t-217 -116v-5q102 -25 158 -105q55 -81 55 -196
q0 -217 -150 -345t-374 -128q-225 1 -335 131t-102 355h129q-8 -173 72 -275t243 -102z" />
    <glyph glyph-name="four" unicode="4" 
d="M834 1212l-687 -747h529l162 743zM20 477l879 957h115l-209 -969h217l-25 -109h-215l-77 -356h-130l78 356h-655z" />
    <glyph glyph-name="five" unicode="5" 
d="M451 -31q-201 0 -317 118t-103 319h129q-14 -154 68 -241t248 -87q167 0 280 126q112 126 112 291t-80 256t-233 91q-225 0 -317 -166l-115 10l235 729h732l-29 -119h-627l-153 -458h4q113 112 304 112t300 -120t108 -302q1 -246 -151 -402t-395 -157z" />
    <glyph glyph-name="six" unicode="6" 
d="M893 516q0 141 -91 225t-243 84t-254 -124t-102 -277q0 -154 85 -250t228 -96q176 0 277 129q100 129 100 309zM1118 1071h-129q-8 266 -276 266q-88 0 -163 -42t-123 -101q-110 -136 -196 -463h5q59 95 158 149t218 54q184 0 297 -124t113 -310q0 -234 -144 -382
t-366 -148t-330 132q-109 133 -108 351q0 352 143 641q182 352 504 352q188 0 293 -94q104 -95 104 -281z" />
    <glyph glyph-name="seven" unicode="7" 
d="M225 1296l29 119h915l-26 -110q-293 -289 -508 -658q-186 -326 -285 -647h-143q104 344 317 685t482 611h-781z" />
    <glyph glyph-name="eight" unicode="8" 
d="M874 417q0 153 -96 221t-252 69q-156 0 -258 -91q-102 -92 -102 -240t94 -223t249 -75t260 93t105 246zM1004 414q0 -203 -154 -324t-354 -121q-200 -1 -329 105q-130 106 -130 288q-1 182 107 290t272 126v4q-96 31 -151 109q-54 78 -54 178q0 172 127 274
q127 103 305 103t302 -86t124 -260q0 -132 -85 -228t-218 -116v-2q114 -35 176 -126t62 -214zM650 1337q-128 -1 -219 -75t-91 -198t83 -186t212 -62t217 72q88 73 88 200t-81 188t-209 61z" />
    <glyph glyph-name="nine" unicode="9" 
d="M618 1337q-176 0 -276 -129t-100 -309q0 -141 91 -225t243 -84t253 124q103 124 103 277t-85 250q-86 96 -229 96zM16 344h129q8 -266 277 -266q88 0 163 42t123 101t90 149t62 158t43 156h-4q-59 -96 -159 -149t-218 -54q-184 0 -297 124t-112 310q0 233 144 381
q143 148 365 150q222 0 330 -133t109 -350q0 -352 -143 -641q-182 -352 -504 -353q-188 1 -293 95t-105 280z" />
    <glyph glyph-name="colon" unicode=":" horiz-adv-x="569" 
d="M219 0h-172l47 217h174zM403 807h-172l48 217h174z" />
    <glyph glyph-name="semicolon" unicode=";" horiz-adv-x="569" 
d="M-25 -281l17 82q45 12 75 46t41 66t25 87h-86l49 217h172l-67 -287q-25 -96 -75 -141t-151 -70zM403 807h-172l48 217h174z" />
    <glyph glyph-name="less" unicode="&#x3c;" horiz-adv-x="1228" 
d="M1135 96v-112l-1041 479v110l1041 480v-113l-914 -422z" />
    <glyph glyph-name="equal" unicode="=" horiz-adv-x="1228" 
d="M1130 774v-108h-1030v108h1030zM1130 371v-109h-1030v109h1030z" />
    <glyph glyph-name="greater" unicode="&#x3e;" horiz-adv-x="1228" 
d="M94 96l914 422l-914 422v113l1041 -480v-110l-1041 -479v112z" />
    <glyph glyph-name="question" unicode="?" horiz-adv-x="1099" 
d="M668 1493q166 0 282 -90t115 -254q0 -164 -93 -261t-235 -194q-102 -64 -142 -130t-67 -191h-129q12 88 33 147q33 98 148 193q35 29 122 92q233 154 234 325q0 123 -75 189t-199 65q-156 0 -249 -104t-106 -270h-129q8 223 139 353t351 130zM301 0l47 217h174l-49 -217
h-172z" />
    <glyph glyph-name="at" unicode="@" horiz-adv-x="1638" 
d="M872 1044q-145 0 -246 -156t-102 -317q0 -90 47 -144t123 -54q131 0 236 166q104 166 104 315q0 72 -51 131q-52 59 -111 59zM1087 354q133 0 240 165q106 165 107 343q0 246 -168 392t-432 146t-447 -195q-182 -197 -182 -479t186 -473t465 -192q152 0 296 74t232 199
h105q-92 -166 -266 -265t-367 -100q-330 0 -545 220q-215 219 -215 543t218 542t526 219q308 0 505 -178q198 -178 197 -459q0 -240 -148 -417t-327 -177q-55 0 -93 36t-44 101h-4q-131 -135 -257 -135t-200 86t-74 220q-1 134 59 268t174 225q114 90 260 90t210 -172
l51 133h108l-196 -590q-51 -170 26 -170z" />
    <glyph glyph-name="A" unicode="A" horiz-adv-x="1290" 
d="M-154 0l895 1462h152l266 -1462h-145l-74 455h-668l-270 -455h-156zM791 1343l-449 -770h578l-125 770h-4z" />
    <glyph glyph-name="B" unicode="B" horiz-adv-x="1366" 
d="M672 119q170 0 294 82t124 241q0 260 -347 260h-440l-127 -583h496zM895 1462q180 0 291 -80t110 -254q0 -143 -87 -241t-230 -123v-4q113 -14 181 -100t69 -206q0 -120 -48 -211q-86 -163 -318 -218q-101 -25 -222 -25h-631l318 1462h567zM1157 1103q0 240 -264 240
h-451l-112 -522h461q156 4 261 78t105 204z" />
    <glyph glyph-name="C" unicode="C" horiz-adv-x="1441" 
d="M875 1374q-173 0 -300 -68t-205 -181q-160 -233 -161 -545q0 -224 129 -358t354 -134q174 0 309 111t187 301h139q-51 -238 -220 -384t-445 -146t-434 169q-159 170 -158 453q0 238 92 440t276 332q184 129 425 129t391 -128t155 -366h-139q-4 183 -113 279t-282 96z" />
    <glyph glyph-name="D" unicode="D" horiz-adv-x="1402" 
d="M1217 903q0 440 -441 440h-334l-266 -1224h352q176 -1 312 63t216 176q161 224 161 545zM799 1462q299 0 428 -152t129 -410q0 -534 -363 -775q-186 -125 -438 -125h-545l318 1462h471z" />
    <glyph glyph-name="E" unicode="E" horiz-adv-x="1175" 
d="M10 0l312 1462h981l-27 -119h-840l-112 -528h784l-27 -119h-782l-123 -577h860l-26 -119h-1000z" />
    <glyph glyph-name="F" unicode="F" horiz-adv-x="1099" 
d="M10 0l314 1462h936l-25 -119h-797l-112 -528h706l-22 -119h-711l-149 -696h-140z" />
    <glyph glyph-name="G" unicode="G" horiz-adv-x="1517" 
d="M864 1374q-196 0 -347 -114t-229 -293q-78 -178 -79 -393q0 -214 122 -350t353 -136t387 150t195 387h-504l29 118h624l-153 -743h-95l25 246h-4q-174 -276 -531 -277q-279 0 -433 164t-154 449q0 242 88 446t273 334q185 131 447 131t411 -125t157 -356h-139
q-8 178 -127 270q-120 92 -316 92z" />
    <glyph glyph-name="H" unicode="H" horiz-adv-x="1441" 
d="M10 0l312 1462h139l-135 -635h845l136 635h139l-311 -1462h-140l152 709h-846l-151 -709h-140z" />
    <glyph glyph-name="I" unicode="I" horiz-adv-x="454" 
d="M10 0l309 1462h140l-309 -1462h-140z" />
    <glyph glyph-name="J" unicode="J" horiz-adv-x="1024" 
d="M334 88q167 0 241 103q57 82 91 229l223 1042h139l-233 -1093q-41 -201 -147 -300t-292 -99q-188 0 -293 81q-104 82 -104 252q0 86 18 166h140q-19 -106 -19 -195q0 -90 71 -138t165 -48z" />
    <glyph glyph-name="K" unicode="K" horiz-adv-x="1327" 
d="M10 0l312 1462h139l-168 -780l4 -4l944 784h195l-750 -610l522 -852h-159l-465 766l-326 -260l-108 -506h-140z" />
    <glyph glyph-name="L" unicode="L" horiz-adv-x="1099" 
d="M10 0l316 1462h139l-289 -1343h809l-29 -119h-946z" />
    <glyph glyph-name="M" unicode="M" horiz-adv-x="1744" 
d="M4 0l318 1462h202l228 -1312l802 1312h203l-313 -1462h-137l301 1323h-4l-809 -1323h-140l-235 1343h-4l-277 -1343h-135z" />
    <glyph glyph-name="N" unicode="N" horiz-adv-x="1441" 
d="M0 0l315 1462h158l584 -1306h4l270 1306h135l-319 -1462h-154l-583 1307h-4l-273 -1307h-133z" />
    <glyph glyph-name="O" unicode="O" horiz-adv-x="1517" 
d="M1331 846q0 238 -119 383t-350 145q-160 0 -287 -68t-205 -181q-160 -233 -161 -545q0 -224 129 -358q128 -134 336 -134t358 115t224 286t75 357zM670 -31q-283 0 -442 170t-158 453q0 238 92 440t276 332q184 129 444 129t425 -167q164 -167 163 -445q0 -370 -205 -633
q-99 -127 -253 -203t-342 -76z" />
    <glyph glyph-name="P" unicode="P" horiz-adv-x="1290" 
d="M915 1462q170 0 280 -97t110 -263q1 -223 -139 -349t-365 -126h-516l-135 -627h-140l316 1462h589zM805 745q158 1 259 91t101 245q0 262 -297 262h-428l-129 -598h494z" />
    <glyph glyph-name="Q" unicode="Q" horiz-adv-x="1517" 
d="M670 -31q-283 0 -442 170t-158 453q0 238 92 440t276 332q184 129 444 129t425 -167q164 -167 163 -445q0 -231 -84 -430t-243 -324l186 -174l-82 -84l-205 192q-162 -92 -372 -92zM1331 846q0 238 -119 383t-350 145q-160 0 -287 -68t-205 -181q-160 -233 -161 -545
q0 -224 129 -358t354 -134q135 0 254 66l-164 151l80 84l185 -172q135 105 209 275t75 354z" />
    <glyph glyph-name="R" unicode="R" horiz-adv-x="1327" 
d="M944 1462q186 0 284 -93t99 -263q0 -170 -104 -283t-267 -125v-4q186 -41 187 -262l-21 -305q0 -94 25 -127h-143q-20 12 -21 150l21 262q0 238 -201 237h-516l-137 -649h-140l312 1462h622zM807 768q168 0 274 82q107 82 107 225t-58 205t-192 63h-502l-123 -575h494z
" />
    <glyph glyph-name="S" unicode="S" horiz-adv-x="1290" 
d="M1104 1036q0 184 -95 261t-269 77t-286 -75q-110 -75 -110 -218q0 -104 65 -155t181 -86l155 -47q163 -47 279 -122q115 -76 115 -251q0 -114 -63 -220q-38 -65 -97 -114t-165 -83t-241 -34q-259 0 -411 129t-139 383h139q-12 -205 100 -299t298 -94t312 81t127 232
q0 115 -73 170q-29 23 -46 35t-71 32t-106 35t-66 19l-143 43q-289 82 -289 340q0 207 151 313q152 105 382 105q230 1 373 -109q144 -110 132 -348h-139z" />
    <glyph glyph-name="T" unicode="T" 
d="M141 1343l25 119h1143l-25 -119h-502l-293 -1343h-139l293 1343h-502z" />
    <glyph glyph-name="U" unicode="U" horiz-adv-x="1441" 
d="M637 88q393 0 473 385l207 989h139l-209 -999q-102 -494 -629 -494q-299 0 -441 176q-79 98 -79 244q1 49 13 119l196 954h139l-194 -930q-14 -55 -14 -126q-8 -154 102 -236t297 -82z" />
    <glyph glyph-name="V" unicode="V" horiz-adv-x="1214" 
d="M360 0l-229 1462h143l187 -1343h4l749 1343h152l-844 -1462h-162z" />
    <glyph glyph-name="W" unicode="W" horiz-adv-x="1857" 
d="M254 0l-109 1462h140l75 -1300h5l622 1300h168l100 -1288h5l598 1288h145l-705 -1462h-151l-96 1329h-4l-639 -1329h-154z" />
    <glyph glyph-name="X" unicode="X" horiz-adv-x="1175" 
d="M-139 0l671 762l-360 700h154l303 -614l530 614h166l-635 -723l381 -739h-147l-326 651l-573 -651h-164z" />
    <glyph glyph-name="Y" unicode="Y" horiz-adv-x="1175" 
d="M612 721l613 741h170l-733 -872l-130 -590h-141l133 604l-389 858h148z" />
    <glyph glyph-name="Z" unicode="Z" horiz-adv-x="1175" 
d="M201 1343l26 119h1055l-25 -116l-1169 -1227h975l-27 -119h-1138l26 123l1166 1220h-889z" />
    <glyph glyph-name="bracketleft" unicode="[" horiz-adv-x="493" 
d="M272 -391h-329l399 1884h334l-23 -109h-200l-359 -1667h199z" />
    <glyph glyph-name="backslash" unicode="\" horiz-adv-x="681" 
d="M723 -31l-842 1524h121l842 -1524h-121z" />
    <glyph glyph-name="bracketright" unicode="]" horiz-adv-x="493" 
d="M252 1493h330l-400 -1884h-334l23 108h201l358 1667h-199z" />
    <glyph glyph-name="asciicircum" unicode="^" horiz-adv-x="1228" 
d="M209 487h-119l471 928h107l471 -928h-117l-410 799z" />
    <glyph glyph-name="underscore" unicode="_" horiz-adv-x="1024" 
d="M1024 -256h-1024v102h1024v-102z" />
    <glyph glyph-name="grave" unicode="`" horiz-adv-x="378" 
d="M137 1499h152l168 -295h-103z" />
    <glyph glyph-name="a" unicode="a" horiz-adv-x="1062" 
d="M346 78q152 0 250 83t129 226l41 178l-4 4q-36 -44 -152 -52q-14 -1 -45 -4q-49 -5 -134 -9t-123 -19q-38 -14 -81 -32t-63 -42q-53 -64 -53 -151q-1 -88 67 -135t168 -47zM573 1087q84 0 161 -17q77 -18 142 -74q64 -56 64 -141t-66 -359q-34 -174 -51 -241
q-18 -67 -18 -116q0 -43 67 -43q14 0 52 4l-19 -102q-51 -10 -106 -10q-109 0 -113 114q0 20 4 58l-4 4q-54 -90 -154 -142t-234 -52t-224 72q-92 73 -92 220q0 218 228 293q127 42 279 48q151 5 207 21t86 59q30 44 29 144q0 152 -223 152q-295 0 -332 -238h-129
q23 172 145 259q123 87 301 87z" />
    <glyph glyph-name="b" unicode="b" horiz-adv-x="1175" 
d="M486 78q140 0 245 91q203 177 203 491q0 144 -75 232q-75 87 -228 87q-101 0 -187 -56q-86 -57 -137 -145q-110 -191 -108 -379q-1 -141 73 -231t214 -90zM662 1087q197 1 299 -121t102 -304q-1 -182 -63 -334t-193 -255t-285 -103t-250 71q-96 72 -122 201h-5l-51 -242
h-117l312 1462h129l-125 -592h4q57 100 151 158t214 59z" />
    <glyph glyph-name="c" unicode="c" horiz-adv-x="1062" 
d="M599 979q-133 0 -239 -88q-202 -167 -202 -485q0 -147 74 -238q74 -90 210 -90t226 72t133 192h129q-123 -373 -494 -373q-192 0 -300 119q-108 120 -108 304t68 338q66 154 200 255q134 102 311 102t285 -91t105 -269h-129q8 115 -64 183t-205 69z" />
    <glyph glyph-name="d" unicode="d" horiz-adv-x="1175" 
d="M441 78q140 0 249 96t161 229t52 273t-78 221q-79 82 -201 82q-230 0 -349 -192t-117 -394q0 -141 72 -228t211 -87zM29 384q0 183 68 338q69 155 204 260t305 105q279 0 344 -229h4l127 604h129l-313 -1462h-125l47 190h-4q-72 -112 -162 -166t-223 -55q-197 0 -299 116
t-102 299z" />
    <glyph glyph-name="e" unicode="e" horiz-adv-x="1062" 
d="M158 412q0 -150 78 -242t216 -92t230 72t129 190h129q-113 -371 -481 -371q-207 0 -319 119t-111 330q-1 172 65 322t199 249q133 98 314 98t288 -112q106 -113 106 -299q0 -102 -10 -182h-827q-6 -37 -6 -82zM576 979q-142 -1 -252 -111t-144 -266h690l2 82
q0 135 -77 215t-219 80z" />
    <glyph glyph-name="f" unicode="f" horiz-adv-x="530" 
d="M301 1210q53 252 265 252q108 0 151 -14l-23 -107q-53 12 -80 13q-88 0 -128 -34t-58 -116l-31 -147h209l-24 -109h-207l-209 -948h-129l209 948h-185l25 109h182z" />
    <glyph glyph-name="g" unicode="g" 
d="M172 463q0 -143 73 -237t212 -95q184 0 303 165t119 359q0 150 -70 237t-219 87q-186 -1 -302 -161t-116 -355zM367 -422q-176 0 -290 82t-118 260h129q0 -125 84 -179t219 -54t212 74q40 38 68 75q59 78 107 293q14 63 21 84l-4 4q-51 -90 -151 -142t-210 -52
q-184 0 -288 120q-103 121 -103 295q0 364 253 554q126 95 270 95q144 -1 245 -65q100 -64 119 -182h4l45 217h119l-201 -946q-59 -287 -176 -410t-354 -123z" />
    <glyph glyph-name="h" unicode="h" horiz-adv-x="1099" 
d="M684 1087q131 1 217 -69t86 -215q0 -43 -16 -125l-146 -678h-129l148 682q14 57 14 106q0 98 -62 144t-159 47q-141 0 -257 -119t-157 -317l-117 -543h-129l316 1462h129l-129 -598h4q57 98 157 160t230 63z" />
    <glyph glyph-name="i" unicode="i" horiz-adv-x="378" 
d="M-23 0l228 1057h129l-228 -1057h-129zM248 1255l45 207h129l-45 -207h-129z" />
    <glyph glyph-name="j" unicode="j" horiz-adv-x="378" 
d="M-190 -391q-16 0 -48 5t-43 5l25 107l74 -9q94 1 125 107l262 1233h129l-264 -1237q-27 -109 -85 -160t-175 -51zM248 1255l43 207h131l-45 -207h-129z" />
    <glyph glyph-name="k" unicode="k" horiz-adv-x="948" 
d="M-23 0l312 1462h129l-197 -917l4 -4l619 516h172l-500 -408l320 -649h-142l-280 571l-226 -188l-82 -383h-129z" />
    <glyph glyph-name="l" unicode="l" horiz-adv-x="378" 
d="M-23 0l316 1462h129l-316 -1462h-129z" />
    <glyph glyph-name="m" unicode="m" horiz-adv-x="1705" 
d="M920 862q139 225 386 225q131 -1 204 -75t73 -203q0 -45 -14 -121l-148 -688h-129l150 692q12 55 12 122t-51 116t-150 49q-157 0 -245 -131t-140 -361l-104 -487h-129l147 688q36 160 -31 239q-44 52 -135 52q-136 0 -244 -126t-151 -316l-115 -537h-129l228 1057h119
l-41 -185l4 -4q59 96 158 158t214 61q233 0 256 -225h5z" />
    <glyph glyph-name="n" unicode="n" horiz-adv-x="1099" 
d="M685 1087q130 1 216 -69t86 -215q0 -43 -16 -125l-146 -678h-129l148 682q14 57 14 106q0 98 -62 144t-159 47q-141 0 -257 -119t-157 -317l-117 -543h-129l228 1057h119l-37 -193h4q63 98 163 160t231 63z" />
    <glyph glyph-name="o" unicode="o" 
d="M622 1087q184 0 300 -110q115 -111 114 -303q0 -287 -154 -496t-431 -209q-201 0 -312 119q-111 118 -111 308t68 342t205 251q137 98 321 98zM158 406q0 -144 80 -236t226 -92t248 93q195 179 195 487q0 140 -80 231q-80 90 -223 90t-247 -89q-199 -172 -199 -484z" />
    <glyph glyph-name="p" unicode="p" horiz-adv-x="1175" 
d="M671 979q-140 0 -249 -96q-109 -95 -161 -229t-52 -273t78 -221q79 -82 201 -82t210 55q159 99 227 331q30 101 29 200q0 141 -71 228q-72 87 -212 87zM682 1087q197 -1 299 -117t102 -298q-1 -182 -69 -338q-68 -154 -203 -259t-287 -105q-319 -1 -356 241h-4l-129 -602
h-129l311 1448h117l-41 -191h4q72 111 162 166t223 55z" />
    <glyph glyph-name="q" unicode="q" horiz-adv-x="1175" 
d="M622 979q-140 0 -244 -91t-154 -219q-50 -129 -50 -273t75 -231t228 -87q102 0 188 56q147 97 216 332q29 99 28 191q0 141 -73 232q-74 90 -214 90zM446 -31q-197 0 -299 122q-102 121 -102 303q1 182 63 334t193 256q131 103 283 103t252 -66q98 -67 131 -175h4l45 211
h119l-312 -1448h-129l125 577h-4q-135 -217 -369 -217z" />
    <glyph glyph-name="r" unicode="r" horiz-adv-x="645" 
d="M655 1071h35q25 0 35 -2l-29 -129l-73 2q-161 -4 -261 -114t-137 -275l-119 -553h-129l228 1057h117l-54 -244h4q139 258 383 258z" />
    <glyph glyph-name="s" unicode="s" horiz-adv-x="985" 
d="M127 344q0 -142 85 -204q86 -62 200 -62t197 50t83 144q0 65 -26 92t-41 40q-13 12 -49 30t-51 26t-60 23q-164 58 -229 108q-66 50 -89 98t-22 110q0 141 121 215q122 74 284 74t265 -82q102 -82 98 -258h-129q8 115 -63 173t-180 58t-188 -41t-79 -139q0 -68 62 -114
t201 -97q140 -52 173 -77q81 -61 95 -89q36 -70 36 -129q0 -164 -126 -244t-298 -80q-171 -1 -289 95t-110 280h129z" />
    <glyph glyph-name="t" unicode="t" horiz-adv-x="606" 
d="M291 96q74 0 151 13l-22 -113q-57 -8 -131 -8q-195 0 -195 151q0 43 15 109l145 700h-191l25 109h191l67 319h129l-67 -319h210l-20 -109h-215l-145 -678q-14 -70 -15 -100q0 -74 68 -74z" />
    <glyph glyph-name="u" unicode="u" horiz-adv-x="1099" 
d="M41 254q0 43 16 125l146 678h129l-148 -682q-14 -57 -14 -107q0 -98 62 -144t159 -46q143 0 256 119t158 317l117 543h129l-228 -1057h-118l36 193h-4q-63 -99 -163 -161t-231 -62q-130 0 -216 69q-86 70 -86 215z" />
    <glyph glyph-name="v" unicode="v" horiz-adv-x="948" 
d="M238 0l-166 1057h135l125 -912h4l495 912h142l-596 -1057h-139z" />
    <glyph glyph-name="w" unicode="w" horiz-adv-x="1517" 
d="M184 0l-123 1057h136l84 -901h4l436 901h151l72 -893h4l449 893h137l-555 -1057h-139l-76 887h-4l-434 -887h-142z" />
    <glyph glyph-name="x" unicode="x" horiz-adv-x="948" 
d="M-119 0l504 557l-248 500h148l192 -416l365 416h155l-465 -512l281 -545h-147l-226 461l-405 -461h-154z" />
    <glyph glyph-name="y" unicode="y" horiz-adv-x="948" 
d="M0 -391q-20 0 -58 5t-55 5l25 105q55 -6 111 -7q98 0 165 115l97 168l-195 1057h135l152 -897h4l487 897h140l-752 -1307q-82 -141 -256 -141z" />
    <glyph glyph-name="z" unicode="z" horiz-adv-x="872" 
d="M90 948l23 109h794l-22 -103l-822 -845h678l-22 -109h-838l23 104l817 844h-631z" />
    <glyph glyph-name="braceleft" unicode="{" horiz-adv-x="681" 
d="M283 -391q-63 0 -111 47q-47 47 -47 127q0 31 10 82l64 303q23 100 22 172q0 156 -102 156l22 108q152 0 217 328l64 305q23 117 85 187t148 69h103l-23 -109h-47q-53 0 -87 -40t-60 -170l-60 -289q-40 -224 -217 -332v-4q38 -25 62 -90q24 -64 24 -115t-14 -127
l-55 -264q-27 -133 -27 -146q0 -90 80 -90h53l-22 -108h-82z" />
    <glyph glyph-name="bar" unicode="|" horiz-adv-x="454" 
d="M174 -438v2048h109v-2048h-109z" />
    <glyph glyph-name="braceright" unicode="}" horiz-adv-x="681" 
d="M350 1493q62 0 110 -47t48 -127q0 -31 -10 -82l-64 -303q-23 -100 -22 -172q0 -156 102 -156l-22 -108q-152 0 -218 -328l-63 -305q-23 -117 -85 -187t-149 -69h-102l23 108h47q53 0 87 40t60 171l60 289q40 224 217 332v4q-38 25 -62 88t-24 115t14 129l55 264
q27 133 27 145q0 90 -80 90h-53l22 109h82z" />
    <glyph glyph-name="asciitilde" unicode="~" horiz-adv-x="1228" 
d="M832 395q-86 0 -228 67q-141 67 -217 66q-106 0 -172 -141l-74 74q86 176 256 176q84 0 238 -67q154 -66 204 -66t90 36t85 105l73 -74q-55 -84 -112 -130t-143 -46z" />
    <glyph glyph-name="Euro" 
d="M788 1333q-311 0 -448 -446h639l-53 -90h-609l-16 -123h569l-55 -90h-520q0 -198 73 -338q38 -76 110 -120t170 -44q99 0 159 27q59 27 96 51t48 31t47 33t46 32l-38 -170q-174 -119 -365 -119q-267 0 -377 184t-108 433h-162l53 90h113l16 123h-129l55 90h95
q59 239 212 403t379 164q115 0 198 -37t173 -119l-69 -108q-70 74 -139 108t-163 35z" />
    <glyph glyph-name="Euro" unicode="&#x20ac;" 
d="M788 1333q-311 0 -448 -446h639l-53 -90h-609l-16 -123h569l-55 -90h-520q0 -198 73 -338q38 -76 110 -120t170 -44q99 0 159 27q59 27 96 51t48 31t47 33t46 32l-38 -170q-174 -119 -365 -119q-267 0 -377 184t-108 433h-162l53 90h113l16 123h-129l55 90h95
q59 239 212 403t379 164q115 0 198 -37t173 -119l-69 -108q-70 74 -139 108t-163 35z" />
    <glyph glyph-name="uni00A0" unicode="&#xa0;" horiz-adv-x="569" 
 />
    <glyph glyph-name="exclamdown" unicode="&#xa1;" horiz-adv-x="569" 
d="M416 840h-172l47 217h174zM262 707h76l-111 -641l-94 -457h-137l94 461z" />
    <glyph glyph-name="cent" unicode="&#xa2;" 
d="M203 410q0 -131 55 -216t164 -108l192 893q-133 -12 -229 -102t-139 -213t-43 -254zM74 402q0 172 64 324t197 256q132 103 304 105l39 179h78l-39 -183q153 -18 241 -108t84 -248h-129q8 106 -53 174t-166 78l-192 -901q123 2 212 74t132 190h129q-123 -373 -494 -373
h-4l-45 -209h-80l47 217q-157 23 -241 138t-84 287z" />
    <glyph glyph-name="sterling" unicode="&#xa3;" 
d="M178 1008q0 225 140 355t350 130t332 -132t106 -341h-129q12 160 -68 262q-81 102 -237 102t-260 -93t-104 -253t52 -297h324l-12 -69h-293q46 -161 6 -269t-246 -284l4 -4q100 47 187 47t196 -42q108 -42 176 -42t123 28t121 93l49 -103q-73 -72 -149 -100t-182 -27
q-50 0 -170 42t-217 42t-236 -80l-49 113q131 104 207 204t75 228q0 45 -22 154h-178l14 69h143q-53 154 -53 267z" />
    <glyph glyph-name="currency" unicode="&#xa4;" 
d="M61 706q0 180 113 320l-113 113l78 78l113 -113q139 113 317 113t318 -113l112 113l78 -78l-112 -113q113 -139 113 -317t-113 -318l112 -112l-78 -78l-114 114q-137 -115 -319 -115t-314 113l-113 -112l-78 78l115 114q-115 133 -115 313zM190 709q0 -156 112 -268
q112 -111 268 -111t267 112q112 112 111 267q0 155 -112 267t-267 112t-267 -112q-112 -111 -112 -267z" />
    <glyph glyph-name="yen" unicode="&#xa5;" 
d="M1143 1462h153l-575 -747h227l-20 -92h-279l-24 -33l-31 -137h299l-21 -93h-299l-77 -360h-129l79 360h-270l21 93h270l33 151l-6 19h-263l21 92h205l-285 747h131l279 -747z" />
    <glyph glyph-name="brokenbar" unicode="&#xa6;" horiz-adv-x="454" 
d="M174 -182v512h109v-512h-109zM174 842v512h109v-512h-109z" />
    <glyph glyph-name="section" unicode="&#xa7;" 
d="M854 428q0 117 -164 281q-43 43 -136 129t-118 114q-76 0 -146 -66t-69 -163q0 -98 199 -297t215 -217q91 13 155 71t64 148zM913 1135q0 115 -54 183q-55 68 -157 66q-102 0 -171 -47t-69 -135t67 -165q40 -46 68 -73q28 -26 41 -39t44 -40q151 -132 226 -234
q75 -101 75 -217t-80 -202t-213 -101q66 -86 66 -176q0 -145 -112 -224t-272 -79t-261 105q-102 105 -91 270h130q-12 -117 58 -192t175 -75q104 0 174 48t70 131q0 107 -121 232q-66 68 -140 138q-213 201 -249 298q-24 67 -25 122q0 123 85 206t210 101q-53 82 -53 158
q0 135 101 217t261 82t255 -88t91 -270h-129z" />
    <glyph glyph-name="dieresis" unicode="&#xa8;" horiz-adv-x="378" 
d="M401 1247l39 209h131l-41 -209h-129zM76 1247l39 209h131l-41 -209h-129z" />
    <glyph glyph-name="copyright" unicode="&#xa9;" horiz-adv-x="1638" 
d="M1581 731q0 -322 -219 -542t-543 -220t-543 220t-219 542t219 542t543 220t543 -220t219 -542zM1462 731q0 273 -184 463t-460 190t-458 -188q-184 -188 -184 -464t183 -466q183 -188 459 -188t460 189q184 190 184 464zM502 731q0 -166 89 -271t249 -106q110 0 182 60
t90 157h105q-17 -145 -123 -227t-256 -82q-205 0 -325 131t-120 338t120 338t325 131q150 0 256 -82t123 -227h-105q-18 95 -91 155t-181 62q-160 0 -249 -106t-89 -271z" />
    <glyph glyph-name="ordfeminine" unicode="&#xaa;" horiz-adv-x="636" 
d="M541 1018l26 100l-2 -2l-4 4q-15 -23 -49 -26q-34 -4 -62 -6t-36 -4q-8 -1 -36 -4t-40 -4t-39 -5t-40 -9t-35 -12t-44 -26q-32 -28 -34 -81q-1 -54 43 -82t106 -27q203 0 246 184zM446 1446q90 0 164 -35t74 -118t-31 -175q-8 -33 -22 -93q-13 -60 -23 -99t-10 -47
q0 -27 43 -27h16q10 0 17 2l-12 -76q-31 -6 -68 -6q-76 0 -76 72q0 12 6 35h-6q-36 -59 -100 -93t-137 -32q-231 0 -232 186q-1 98 63 143q97 69 292 74q73 2 102 10q82 19 82 109t-135 90q-197 0 -222 -139h-88q33 219 303 219z" />
    <glyph glyph-name="guillemotleft" unicode="&#xab;" horiz-adv-x="872" 
d="M319 240l-217 286l31 131l326 232l-31 -139l-238 -172l154 -209zM647 240l-217 286l31 131l325 232l-30 -139l-238 -172l154 -209z" />
    <glyph glyph-name="logicalnot" unicode="&#xac;" horiz-adv-x="1228" 
d="M1022 227v439h-922v108h1030v-547h-108z" />
    <glyph glyph-name="uni00AD" unicode="&#xad;" horiz-adv-x="757" 
d="M78 504l24 119h514l-24 -119h-514z" />
    <glyph glyph-name="registered" unicode="&#xae;" horiz-adv-x="1638" 
d="M819 1493q324 0 543 -220t219 -542t-219 -542t-543 -220t-543 220t-219 542t219 542t543 220zM818 1384q-274 0 -458 -188t-184 -464t183 -466q183 -188 459 -188t460 189t184 463t-184 465q-185 189 -460 189zM651 682v-391h-108v880h338q287 0 286 -243
q0 -205 -221 -246l262 -391h-127l-247 391h-183zM651 774h144q165 0 213 36q49 36 51 118q0 152 -209 151h-199v-305z" />
    <glyph glyph-name="macron" unicode="&#xaf;" horiz-adv-x="378" 
d="M582 1307h-525l17 92h524z" />
    <glyph glyph-name="degree" unicode="&#xb0;" horiz-adv-x="819" 
d="M240 1150q0 124 86 210t208 86t208 -87t87 -209q0 -122 -86 -208q-85 -86 -209 -86t-209 85t-85 209zM319 1151q1 -91 63 -153t152 -62t153 62t63 152t-64 154q-64 62 -152 62q-89 0 -152 -62t-63 -153z" />
    <glyph glyph-name="plusminus" unicode="&#xb1;" horiz-adv-x="1228" 
d="M561 662v368h109v-368h460v-109h-460v-369h-109v369h-459v109h459zM100 0v109h1030v-109h-1030z" />
    <glyph glyph-name="twosuperior" unicode="&#xb2;" horiz-adv-x="681" 
d="M452 1446q128 0 204 -60t85 -172q-1 -114 -71 -184t-199 -135q-25 -14 -85 -44t-127 -69q-114 -66 -124 -141h504l-14 -80h-602q8 135 98 214t221 143q10 6 45 24t46 24t41 23q30 15 41 25t35 27t33 29t24 30q38 47 38 118q0 72 -54 110t-143 38t-151 -66t-66 -159h-96
q4 135 96 220q93 85 221 85z" />
    <glyph glyph-name="threesuperior" unicode="&#xb3;" horiz-adv-x="681" 
d="M467 1446q119 0 196 -56t76 -167q0 -79 -54 -137t-140 -70v-4q137 -35 137 -174t-101 -217t-254 -78t-217 78t-61 225h84q-14 -223 201 -223q104 0 178 58t74 141t-58 119t-149 36h-45l14 80h53q242 0 242 164q0 69 -52 107t-128 38q-193 0 -230 -199h-83q53 279 317 279
z" />
    <glyph glyph-name="acute" unicode="&#xb4;" horiz-adv-x="378" 
d="M172 1204l238 295h165l-294 -295h-109z" />
    <glyph glyph-name="mu" unicode="&#xb5;" horiz-adv-x="1099" 
d="M170 268q0 -98 62 -144t159 -46q143 0 256 119t158 317l117 543h129l-228 -1057h-118l36 193h-4q-63 -99 -163 -161t-214 -63q-166 0 -247 84l-93 -444h-124l307 1448h129l-148 -682q-14 -57 -14 -107z" />
    <glyph glyph-name="paragraph" unicode="&#xb6;" horiz-adv-x="1228" 
d="M690 1462h445l-379 -1824h-109l361 1734h-260l-361 -1734h-108l215 1034q-178 0 -277 113q-98 114 -65 276q41 195 181 298t357 103z" />
    <glyph glyph-name="periodcentered" unicode="&#xb7;" horiz-adv-x="569" 
d="M145 639q0 47 34 81t81 34t81 -34t34 -79t-34 -81t-80 -36t-81 34t-35 81z" />
    <glyph glyph-name="cedilla" unicode="&#xb8;" horiz-adv-x="378" 
d="M3 -346q126 0 126 82q0 40 -32 62t-77 22t-81 -19l-33 37l143 162h76l-113 -115l4 -4q24 8 82 8q58 1 101 -35t43 -111t-68 -117t-162 -42t-186 45l29 60q90 -35 148 -35z" />
    <glyph glyph-name="onesuperior" unicode="&#xb9;" horiz-adv-x="681" 
d="M221 1194l19 80q207 27 292 153h78l-198 -866h-99l162 703q-88 -54 -254 -70z" />
    <glyph glyph-name="ordmasculine" unicode="&#xba;" horiz-adv-x="684" 
d="M356 754q-137 0 -210 72t-72 202q0 174 105 296t288 122q129 0 204 -68t74 -190q1 -182 -101 -308t-288 -126zM451 1366q-125 0 -203 -105t-78 -212q0 -215 203 -215q125 0 201 108t75 213q0 103 -51 157t-147 54z" />
    <glyph glyph-name="guillemotright" unicode="&#xbb;" horiz-adv-x="872" 
d="M498 889l217 -287l-31 -131l-326 -231l31 139l238 172l-154 209zM170 889l217 -287l-31 -131l-325 -231l30 139l238 172l-154 209z" />
    <glyph glyph-name="onequarter" unicode="&#xbc;" horiz-adv-x="1708" 
d="M315 -70l910 1555h108l-909 -1555h-109zM221 1194l19 80q207 27 292 153h78l-198 -866h-99l162 703q-88 -54 -254 -70zM926 291l563 569h92l-133 -577h129l-14 -80h-133l-48 -203h-96l47 203h-422zM1446 717l-418 -434h322l100 430z" />
    <glyph glyph-name="onehalf" unicode="&#xbd;" horiz-adv-x="1708" 
d="M266 -70l910 1555h108l-909 -1555h-109zM170 1194l18 80q207 27 293 153h78l-199 -866h-98l162 703q-88 -54 -254 -70zM1346 885q128 1 206 -59q76 -60 84 -173q0 -113 -70 -183t-200 -136q-25 -14 -85 -44t-127 -69q-114 -66 -124 -141h504l-14 -80h-602q8 135 99 215
t220 141q10 6 45 24t46 26q11 6 41 22t41 26t35 26t33 28t24 30q38 47 38 118t-54 110t-143 39q-89 1 -151 -65t-66 -160h-96q4 135 96 220t220 85z" />
    <glyph glyph-name="threequarters" unicode="&#xbe;" horiz-adv-x="1708" 
d="M467 1446q119 0 196 -56t76 -167q0 -79 -54 -137t-140 -70v-4q137 -35 137 -174t-101 -217t-254 -78t-217 78t-61 225h84q-14 -223 201 -223q104 0 178 58t74 141t-58 119t-149 36h-45l14 80h53q242 0 242 164q0 69 -52 107t-128 38q-193 0 -230 -199h-83q53 279 317 279
zM387 -70l909 1555h109l-909 -1555h-109zM926 291l563 569h92l-133 -577h129l-14 -80h-133l-48 -203h-96l47 203h-422zM1446 717l-418 -434h322l100 430z" />
    <glyph glyph-name="questiondown" unicode="&#xbf;" horiz-adv-x="1099" 
d="M358 -422q-166 0 -282 90t-115 247q0 157 83 255t214 184t172 152t68 192h129q-13 -88 -33 -147t-66 -111t-82 -82q-35 -29 -122 -92q-233 -154 -234 -325q0 -123 75 -189t200 -65q157 0 249 104t105 270h129q-8 -221 -139 -352t-351 -131zM504 840l47 217h174l-49 -217
h-172z" />
    <glyph glyph-name="Agrave" unicode="&#xc0;" horiz-adv-x="1290" 
d="M571 1888h152l168 -295h-103zM-154 0l895 1462h152l266 -1462h-145l-74 455h-668l-270 -455h-156zM791 1343l-449 -770h578l-125 770h-4z" />
    <glyph glyph-name="Aacute" unicode="&#xc1;" horiz-adv-x="1290" 
d="M756 1593l237 295h166l-295 -295h-108zM-154 0l895 1462h152l266 -1462h-145l-74 455h-668l-270 -455h-156zM791 1343l-449 -770h578l-125 770h-4z" />
    <glyph glyph-name="Acircumflex" unicode="&#xc2;" horiz-adv-x="1290" 
d="M864 1810l-207 -217h-125l279 295h129l176 -295h-117zM-154 0l895 1462h152l266 -1462h-145l-74 455h-668l-270 -455h-156zM791 1343l-449 -770h578l-125 770h-4z" />
    <glyph glyph-name="Atilde" unicode="&#xc3;" horiz-adv-x="1290" 
d="M980 1638q-62 0 -165 56q-94 59 -130 59q-35 0 -63 -37t-36 -78h-84q55 207 190 207q49 0 144 -53q94 -61 133 -61q39 1 67 39t35 75h82q-18 -86 -59 -137q-52 -70 -114 -70zM-154 0l895 1462h152l266 -1462h-145l-74 455h-668l-270 -455h-156zM791 1343l-449 -770h578
l-125 770h-4z" />
    <glyph glyph-name="Adieresis" unicode="&#xc4;" horiz-adv-x="1290" 
d="M938 1636l39 209h131l-41 -209h-129zM612 1636l39 209h131l-41 -209h-129zM-154 0l895 1462h152l266 -1462h-145l-74 455h-668l-270 -455h-156zM791 1343l-449 -770h578l-125 770h-4z" />
    <glyph glyph-name="Aring" unicode="&#xc5;" horiz-adv-x="1290" 
d="M844 1626q53 0 94 41t41 94t-41 93t-94 40t-93 -40t-40 -93t40 -94t93 -41zM846 1556q-84 0 -144 62t-61 143q0 83 60 143q61 60 143 60t143 -60t61 -144t-58 -144q-60 -60 -144 -60zM-154 0l895 1462h152l266 -1462h-145l-74 455h-668l-270 -455h-156zM791 1343
l-449 -770h578l-125 770h-4z" />
    <glyph glyph-name="AE" unicode="&#xc6;" horiz-adv-x="1820" 
d="M-166 0l1094 1462h1020l-27 -119h-731l-115 -528h686l-26 -119h-684l-125 -577h755l-26 -119h-895l100 463h-522l-340 -463h-164zM989 1343l-563 -761h459l166 761h-62z" />
    <glyph glyph-name="Ccedilla" unicode="&#xc7;" horiz-adv-x="1441" 
d="M546 -346q126 0 126 82q0 40 -32 62t-77 22t-82 -19l-32 37l120 137q-78 8 -155 39q-166 68 -255 218t-89 374t92 426t276 332q184 129 425 129t391 -128t155 -366h-139q-4 183 -113 279t-282 96t-300 -68t-205 -181q-160 -233 -161 -545q0 -224 129 -358t354 -134
q174 0 309 111t187 301h139q-51 -238 -220 -384t-437 -147h-33l-82 -84l4 -4q25 8 83 8q58 1 100 -35t42 -111t-68 -117t-161 -42q-94 0 -186 45l28 60q91 -35 149 -35z" />
    <glyph glyph-name="Egrave" unicode="&#xc8;" horiz-adv-x="1175" 
d="M614 1888h152l168 -295h-103zM10 0l312 1462h981l-27 -119h-840l-112 -528h784l-27 -119h-782l-123 -577h860l-26 -119h-1000z" />
    <glyph glyph-name="Eacute" unicode="&#xc9;" horiz-adv-x="1175" 
d="M756 1593l237 295h166l-295 -295h-108zM10 0l312 1462h981l-27 -119h-840l-112 -528h784l-27 -119h-782l-123 -577h860l-26 -119h-1000z" />
    <glyph glyph-name="Ecircumflex" unicode="&#xca;" horiz-adv-x="1175" 
d="M860 1810l-207 -217h-125l279 295h129l176 -295h-117zM10 0l312 1462h981l-27 -119h-840l-112 -528h784l-27 -119h-782l-123 -577h860l-26 -119h-1000z" />
    <glyph glyph-name="Edieresis" unicode="&#xcb;" horiz-adv-x="1175" 
d="M920 1636l38 209h132l-41 -209h-129zM594 1636l39 209h131l-41 -209h-129zM10 0l312 1462h981l-27 -119h-840l-112 -528h784l-27 -119h-782l-123 -577h860l-26 -119h-1000z" />
    <glyph glyph-name="Igrave" unicode="&#xcc;" horiz-adv-x="454" 
d="M137 1921h152l168 -295h-103zM10 0l309 1462h140l-309 -1462h-140z" />
    <glyph glyph-name="Iacute" unicode="&#xcd;" horiz-adv-x="454" 
d="M319 1593l238 295h166l-295 -295h-109zM10 0l309 1462h140l-309 -1462h-140z" />
    <glyph glyph-name="Icircumflex" unicode="&#xce;" horiz-adv-x="454" 
d="M444 1843l-206 -217h-125l278 295h129l176 -295h-116zM10 0l309 1462h140l-309 -1462h-140z" />
    <glyph glyph-name="Idieresis" unicode="&#xcf;" horiz-adv-x="454" 
d="M514 1669l39 209h131l-41 -209h-129zM188 1669l39 209h131l-41 -209h-129zM10 0l309 1462h140l-309 -1462h-140z" />
    <glyph glyph-name="Eth" unicode="&#xd0;" horiz-adv-x="1402" 
d="M799 1462q299 0 428 -152t129 -410q0 -534 -363 -775q-186 -125 -438 -125h-545l156 713h-162l21 92h161l142 657h471zM1217 903q0 440 -441 440h-334l-116 -538h436l-21 -92h-436l-129 -594h352q176 -1 312 63t216 176q161 224 161 545z" />
    <glyph glyph-name="Ntilde" unicode="&#xd1;" horiz-adv-x="1441" 
d="M1080 1638q-62 0 -165 56q-94 59 -130 59q-35 0 -63 -37t-36 -78h-84q55 207 191 207q49 0 143 -53q94 -61 133 -61t67 38q27 39 35 76h82q-18 -86 -59 -137q-52 -70 -114 -70zM0 0l315 1462h158l584 -1306h4l270 1306h135l-319 -1462h-154l-583 1307h-4l-273 -1307h-133
z" />
    <glyph glyph-name="Ograve" unicode="&#xd2;" horiz-adv-x="1517" 
d="M641 1921h152l168 -295h-103zM1331 846q0 238 -119 383t-350 145q-160 0 -287 -68t-205 -181q-160 -233 -161 -545q0 -224 129 -358q128 -134 336 -134t358 115t224 286t75 357zM670 -31q-283 0 -442 170t-158 453q0 238 92 440t276 332q184 129 444 129t425 -167
q164 -167 163 -445q0 -370 -205 -633q-99 -127 -253 -203t-342 -76z" />
    <glyph glyph-name="Oacute" unicode="&#xd3;" horiz-adv-x="1517" 
d="M834 1626l237 295h166l-295 -295h-108zM1331 846q0 238 -119 383t-350 145q-160 0 -287 -68t-205 -181q-160 -233 -161 -545q0 -224 129 -358q128 -134 336 -134t358 115t224 286t75 357zM670 -31q-283 0 -442 170t-158 453q0 238 92 440t276 332q184 129 444 129
t425 -167q164 -167 163 -445q0 -370 -205 -633q-99 -127 -253 -203t-342 -76z" />
    <glyph glyph-name="Ocircumflex" unicode="&#xd4;" horiz-adv-x="1517" 
d="M938 1843l-207 -217h-125l279 295h129l176 -295h-117zM1331 846q0 238 -119 383t-350 145q-160 0 -287 -68t-205 -181q-160 -233 -161 -545q0 -224 129 -358q128 -134 336 -134t358 115t224 286t75 357zM670 -31q-283 0 -442 170t-158 453q0 238 92 440t276 332
q184 129 444 129t425 -167q164 -167 163 -445q0 -370 -205 -633q-99 -127 -253 -203t-342 -76z" />
    <glyph glyph-name="Otilde" unicode="&#xd5;" horiz-adv-x="1517" 
d="M1074 1638q-62 0 -165 56q-94 59 -130 59q-35 0 -63 -37t-36 -78h-84q55 207 190 207q49 0 144 -53q94 -61 133 -61q39 1 67 39t35 75h82q-18 -86 -59 -137q-52 -70 -114 -70zM1331 846q0 238 -119 383t-350 145q-160 0 -287 -68t-205 -181q-160 -233 -161 -545
q0 -224 129 -358q128 -134 336 -134t358 115t224 286t75 357zM670 -31q-283 0 -442 170t-158 453q0 238 92 440t276 332q184 129 444 129t425 -167q164 -167 163 -445q0 -370 -205 -633q-99 -127 -253 -203t-342 -76z" />
    <glyph glyph-name="Odieresis" unicode="&#xd6;" horiz-adv-x="1517" 
d="M1006 1636l38 209h132l-41 -209h-129zM680 1636l39 209h131l-41 -209h-129zM1331 846q0 238 -119 383t-350 145q-160 0 -287 -68t-205 -181q-160 -233 -161 -545q0 -224 129 -358q128 -134 336 -134t358 115t224 286t75 357zM670 -31q-283 0 -442 170t-158 453
q0 238 92 440t276 332q184 129 444 129t425 -167q164 -167 163 -445q0 -370 -205 -633q-99 -127 -253 -203t-342 -76z" />
    <glyph glyph-name="multiply" unicode="&#xd7;" horiz-adv-x="1228" 
d="M537 514l-385 387l75 76l387 -387l387 387l76 -76l-387 -387l387 -387l-76 -76l-387 385l-387 -385l-75 76z" />
    <glyph glyph-name="Oslash" unicode="&#xd8;" horiz-adv-x="1517" 
d="M862 1374q-160 0 -287 -68t-205 -181q-160 -233 -161 -545q0 -178 78 -293l913 954q-123 133 -338 133zM670 -31q-268 0 -430 162l-181 -186l-49 55l180 186q-120 158 -120 401t92 445t276 332q184 129 436 129t418 -156l172 181l52 -60l-170 -176q125 -164 124 -401
q0 -370 -205 -633q-99 -127 -253 -203t-342 -76zM692 88q190 0 340 115t224 285t75 366q0 195 -84 326l-913 -951q131 -141 358 -141z" />
    <glyph glyph-name="Ugrave" unicode="&#xd9;" horiz-adv-x="1441" 
d="M639 1921h152l167 -295h-102zM637 88q393 0 473 385l207 989h139l-209 -999q-102 -494 -629 -494q-299 0 -441 176q-79 98 -79 244q1 49 13 119l196 954h139l-194 -930q-14 -55 -14 -126q-8 -154 102 -236t297 -82z" />
    <glyph glyph-name="Uacute" unicode="&#xda;" horiz-adv-x="1441" 
d="M827 1626l238 295h166l-295 -295h-109zM637 88q393 0 473 385l207 989h139l-209 -999q-102 -494 -629 -494q-299 0 -441 176q-79 98 -79 244q1 49 13 119l196 954h139l-194 -930q-14 -55 -14 -126q-8 -154 102 -236t297 -82z" />
    <glyph glyph-name="Ucircumflex" unicode="&#xdb;" horiz-adv-x="1441" 
d="M936 1843l-207 -217h-125l279 295h129l176 -295h-117zM637 88q393 0 473 385l207 989h139l-209 -999q-102 -494 -629 -494q-299 0 -441 176q-79 98 -79 244q1 49 13 119l196 954h139l-194 -930q-14 -55 -14 -126q-8 -154 102 -236t297 -82z" />
    <glyph glyph-name="Udieresis" unicode="&#xdc;" horiz-adv-x="1441" 
d="M989 1636l39 209h131l-41 -209h-129zM664 1636l38 209h132l-41 -209h-129zM637 88q393 0 473 385l207 989h139l-209 -999q-102 -494 -629 -494q-299 0 -441 176q-79 98 -79 244q1 49 13 119l196 954h139l-194 -930q-14 -55 -14 -126q-8 -154 102 -236t297 -82z" />
    <glyph glyph-name="Yacute" unicode="&#xdd;" horiz-adv-x="1175" 
d="M733 1593l238 295h166l-295 -295h-109zM612 721l613 741h170l-733 -872l-130 -590h-141l133 604l-389 858h148z" />
    <glyph glyph-name="Thorn" unicode="&#xde;" horiz-adv-x="1290" 
d="M862 1223q170 1 280 -97t109 -264q0 -223 -139 -349t-364 -126h-517l-81 -387h-140l316 1462h139l-53 -239h450zM752 506q158 0 259 90t101 246q0 262 -297 262h-428l-129 -598h494z" />
    <glyph glyph-name="germandbls" unicode="&#xdf;" horiz-adv-x="1062" 
d="M651 1493q162 0 261 -79q100 -79 100 -227q0 -149 -89 -251t-225 -119v-4q117 -25 180 -103q62 -79 62 -198q0 -215 -147 -370t-363 -154q-88 0 -135 8l22 106q31 -6 93 -6q166 0 284 115t117 273q0 158 -93 213q-93 56 -257 57l24 108q152 -6 275 73t123 230
q-1 103 -63 161t-183 58q-238 0 -295 -301l-236 -1083h-129l242 1116q80 377 432 377z" />
    <glyph glyph-name="agrave" unicode="&#xe0;" horiz-adv-x="1062" 
d="M393 1499h152l168 -295h-103zM346 78q152 0 250 83t129 226l41 178l-4 4q-36 -44 -152 -52q-14 -1 -45 -4q-49 -5 -134 -9t-123 -19q-38 -14 -81 -32t-63 -42q-53 -64 -53 -151q-1 -88 67 -135t168 -47zM573 1087q84 0 161 -17q77 -18 142 -74q64 -56 64 -141t-66 -359
q-34 -174 -51 -241q-18 -67 -18 -116q0 -43 67 -43q14 0 52 4l-19 -102q-51 -10 -106 -10q-109 0 -113 114q0 20 4 58l-4 4q-54 -90 -154 -142t-234 -52t-224 72q-92 73 -92 220q0 218 228 293q127 42 279 48q151 5 207 21t86 59q30 44 29 144q0 152 -223 152
q-295 0 -332 -238h-129q23 172 145 259q123 87 301 87z" />
    <glyph glyph-name="aacute" unicode="&#xe1;" horiz-adv-x="1062" 
d="M526 1204l238 295h166l-295 -295h-109zM346 78q152 0 250 83t129 226l41 178l-4 4q-36 -44 -152 -52q-14 -1 -45 -4q-49 -5 -134 -9t-123 -19q-38 -14 -81 -32t-63 -42q-53 -64 -53 -151q-1 -88 67 -135t168 -47zM573 1087q84 0 161 -17q77 -18 142 -74q64 -56 64 -141
t-66 -359q-34 -174 -51 -241q-18 -67 -18 -116q0 -43 67 -43q14 0 52 4l-19 -102q-51 -10 -106 -10q-109 0 -113 114q0 20 4 58l-4 4q-54 -90 -154 -142t-234 -52t-224 72q-92 73 -92 220q0 218 228 293q127 42 279 48q151 5 207 21t86 59q30 44 29 144q0 152 -223 152
q-295 0 -332 -238h-129q23 172 145 259q123 87 301 87z" />
    <glyph glyph-name="acircumflex" unicode="&#xe2;" horiz-adv-x="1062" 
d="M664 1421l-207 -217h-125l278 295h129l176 -295h-116zM346 78q152 0 250 83t129 226l41 178l-4 4q-36 -44 -152 -52q-14 -1 -45 -4q-49 -5 -134 -9t-123 -19q-38 -14 -81 -32t-63 -42q-53 -64 -53 -151q-1 -88 67 -135t168 -47zM573 1087q84 0 161 -17q77 -18 142 -74
q64 -56 64 -141t-66 -359q-34 -174 -51 -241q-18 -67 -18 -116q0 -43 67 -43q14 0 52 4l-19 -102q-51 -10 -106 -10q-109 0 -113 114q0 20 4 58l-4 4q-54 -90 -154 -142t-234 -52t-224 72q-92 73 -92 220q0 218 228 293q127 42 279 48q151 5 207 21t86 59q30 44 29 144
q0 152 -223 152q-295 0 -332 -238h-129q23 172 145 259q123 87 301 87z" />
    <glyph glyph-name="atilde" unicode="&#xe3;" horiz-adv-x="1062" 
d="M804 1249q-62 0 -165 56q-94 59 -130 59t-64 -37t-35 -78h-84q55 207 190 207q49 0 143 -53q94 -61 144 -62q29 0 57 39t35 76h82q-18 -86 -59 -137q-52 -70 -114 -70zM346 78q152 0 250 83t129 226l41 178l-4 4q-36 -44 -152 -52q-14 -1 -45 -4q-49 -5 -134 -9t-123 -19
q-38 -14 -81 -32t-63 -42q-53 -64 -53 -151q-1 -88 67 -135t168 -47zM573 1087q84 0 161 -17q77 -18 142 -74q64 -56 64 -141t-66 -359q-34 -174 -51 -241q-18 -67 -18 -116q0 -43 67 -43q14 0 52 4l-19 -102q-51 -10 -106 -10q-109 0 -113 114q0 20 4 58l-4 4
q-54 -90 -154 -142t-234 -52t-224 72q-92 73 -92 220q0 218 228 293q127 42 279 48q151 5 207 21t86 59q30 44 29 144q0 152 -223 152q-295 0 -332 -238h-129q23 172 145 259q123 87 301 87z" />
    <glyph glyph-name="adieresis" unicode="&#xe4;" horiz-adv-x="1062" 
d="M729 1247l39 209h131l-41 -209h-129zM403 1247l39 209h131l-41 -209h-129zM346 78q152 0 250 83t129 226l41 178l-4 4q-36 -44 -152 -52q-14 -1 -45 -4q-49 -5 -134 -9t-123 -19q-38 -14 -81 -32t-63 -42q-53 -64 -53 -151q-1 -88 67 -135t168 -47zM573 1087
q84 0 161 -17q77 -18 142 -74q64 -56 64 -141t-66 -359q-34 -174 -51 -241q-18 -67 -18 -116q0 -43 67 -43q14 0 52 4l-19 -102q-51 -10 -106 -10q-109 0 -113 114q0 20 4 58l-4 4q-54 -90 -154 -142t-234 -52t-224 72q-92 73 -92 220q0 218 228 293q127 42 279 48
q151 5 207 21t86 59q30 44 29 144q0 152 -223 152q-295 0 -332 -238h-129q23 172 145 259q123 87 301 87z" />
    <glyph glyph-name="aring" unicode="&#xe5;" horiz-adv-x="1062" 
d="M635 1257q53 0 94 41q41 40 41 94t-41 94t-94 40t-93 -40t-40 -93t40 -95t93 -41zM637 1188q-84 0 -144 61q-61 61 -61 143t60 143q60 60 143 60q82 0 143 -60q62 -60 62 -144q0 -83 -60 -143t-143 -60zM346 78q152 0 250 83t129 226l41 178l-4 4q-36 -44 -152 -52
q-14 -1 -45 -4q-49 -5 -134 -9t-123 -19q-38 -14 -81 -32t-63 -42q-53 -64 -53 -151q-1 -88 67 -135t168 -47zM573 1087q84 0 161 -17q77 -18 142 -74q64 -56 64 -141t-66 -359q-34 -174 -51 -241q-18 -67 -18 -116q0 -43 67 -43q14 0 52 4l-19 -102q-51 -10 -106 -10
q-109 0 -113 114q0 20 4 58l-4 4q-54 -90 -154 -142t-234 -52t-224 72q-92 73 -92 220q0 218 228 293q127 42 279 48q151 5 207 21t86 59q30 44 29 144q0 152 -223 152q-295 0 -332 -238h-129q23 172 145 259q123 87 301 87z" />
    <glyph glyph-name="ae" unicode="&#xe6;" horiz-adv-x="1744" 
d="M1552 647v45q0 127 -71 207q-73 80 -215 80q-142 1 -241 -105t-134 -272h657q4 33 4 45zM573 1087q76 0 141 -16t124 -66t77 -133q121 215 379 215q186 0 287 -116q100 -117 100 -314q0 -84 -20 -163h-789q-16 -82 -16 -138q0 -126 81 -202t208 -76t221 70t127 192h129
q-61 -188 -183 -280t-323 -91q-145 0 -243 71q-97 71 -113 210h-4q-100 -281 -437 -281q-153 0 -245 73t-92 220q0 218 228 293q127 42 279 48q151 5 207 21t86 59q30 44 29 144q0 152 -223 152q-295 0 -332 -238h-129q23 172 145 259q123 87 301 87zM346 78q152 0 250 83
t129 226l41 178l-4 4q-36 -44 -152 -52q-14 -1 -45 -4q-49 -5 -134 -9t-123 -19q-38 -14 -81 -32t-63 -42q-53 -64 -53 -151q-1 -88 67 -135t168 -47z" />
    <glyph glyph-name="ccedilla" unicode="&#xe7;" horiz-adv-x="1062" 
d="M326 -346q126 0 127 82q0 40 -32 62t-77 22t-82 -19l-33 37l121 139q-45 6 -88 23q-233 100 -233 406q1 170 67 324t200 255q134 102 311 102t286 -91t104 -269h-129q8 115 -64 183t-205 69q-133 0 -239 -88q-202 -167 -202 -485q0 -147 74 -238q74 -90 210 -90t226 72
t133 192h129q-123 -373 -494 -373h-18l-82 -84l4 -4q24 8 82 8q58 1 100 -35t43 -111t-67 -117t-162 -42t-186 45l28 60q90 -35 148 -35z" />
    <glyph glyph-name="egrave" unicode="&#xe8;" horiz-adv-x="1062" 
d="M401 1499h152l168 -295h-103zM158 412q0 -150 78 -242t216 -92t230 72t129 190h129q-113 -371 -481 -371q-207 0 -319 119t-111 330q-1 172 65 322t199 249q133 98 314 98t288 -112q106 -113 106 -299q0 -102 -10 -182h-827q-6 -37 -6 -82zM576 979q-142 -1 -252 -111
t-144 -266h690l2 82q0 135 -77 215t-219 80z" />
    <glyph glyph-name="eacute" unicode="&#xe9;" horiz-adv-x="1062" 
d="M537 1204l237 295h166l-295 -295h-108zM158 412q0 -150 78 -242t216 -92t230 72t129 190h129q-113 -371 -481 -371q-207 0 -319 119t-111 330q-1 172 65 322t199 249q133 98 314 98t288 -112q106 -113 106 -299q0 -102 -10 -182h-827q-6 -37 -6 -82zM576 979
q-142 -1 -252 -111t-144 -266h690l2 82q0 135 -77 215t-219 80z" />
    <glyph glyph-name="ecircumflex" unicode="&#xea;" horiz-adv-x="1062" 
d="M670 1421l-207 -217h-125l278 295h129l177 -295h-117zM158 412q0 -150 78 -242t216 -92t230 72t129 190h129q-113 -371 -481 -371q-207 0 -319 119t-111 330q-1 172 65 322t199 249q133 98 314 98t288 -112q106 -113 106 -299q0 -102 -10 -182h-827q-6 -37 -6 -82z
M576 979q-142 -1 -252 -111t-144 -266h690l2 82q0 135 -77 215t-219 80z" />
    <glyph glyph-name="edieresis" unicode="&#xeb;" horiz-adv-x="1062" 
d="M731 1247l39 209h131l-41 -209h-129zM406 1247l38 209h131l-40 -209h-129zM158 412q0 -150 78 -242t216 -92t230 72t129 190h129q-113 -371 -481 -371q-207 0 -319 119t-111 330q-1 172 65 322t199 249q133 98 314 98t288 -112q106 -113 106 -299q0 -102 -10 -182h-827
q-6 -37 -6 -82zM576 979q-142 -1 -252 -111t-144 -266h690l2 82q0 135 -77 215t-219 80z" />
    <glyph glyph-name="igrave" unicode="&#xec;" horiz-adv-x="378" 
d="M12 1499h152l168 -295h-103zM106 0h-129l228 1057h129z" />
    <glyph glyph-name="iacute" unicode="&#xed;" horiz-adv-x="378" 
d="M211 1204l238 295h165l-295 -295h-108zM106 0h-129l228 1057h129z" />
    <glyph glyph-name="icircumflex" unicode="&#xee;" horiz-adv-x="378" 
d="M328 1421l-207 -217h-125l278 295h129l177 -295h-117zM106 0h-129l228 1057h129z" />
    <glyph glyph-name="idieresis" unicode="&#xef;" horiz-adv-x="378" 
d="M401 1247l39 209h131l-41 -209h-129zM76 1247l39 209h131l-41 -209h-129zM106 0h-129l228 1057h129z" />
    <glyph glyph-name="eth" unicode="&#xf0;" 
d="M606 928q-146 0 -248 -85q-104 -85 -152 -203t-48 -254t80 -222t226 -86t251 88q198 168 198 460q0 132 -80 217q-81 85 -227 85zM455 1227l213 108q-80 72 -172 113l94 72q104 -53 184 -129l240 120l53 -63l-236 -119q221 -246 211 -616q-8 -304 -142 -511
q-68 -108 -184 -170t-265 -63q-201 0 -312 113t-110 307q0 262 159 455q160 193 430 192q203 0 293 -135h4q-41 229 -186 375l-221 -113z" />
    <glyph glyph-name="ntilde" unicode="&#xf1;" horiz-adv-x="1099" 
d="M802 1249q-62 0 -165 56q-94 59 -130 59t-64 -37t-35 -78h-84q55 207 190 207q49 0 143 -53q94 -61 144 -62q29 0 57 39t35 76h82q-18 -86 -60 -137q-51 -70 -113 -70zM685 1087q130 1 216 -69t86 -215q0 -43 -16 -125l-146 -678h-129l148 682q14 57 14 106q0 98 -62 144
t-159 47q-141 0 -257 -119t-157 -317l-117 -543h-129l228 1057h119l-37 -193h4q63 98 163 160t231 63z" />
    <glyph glyph-name="ograve" unicode="&#xf2;" 
d="M436 1499h152l168 -295h-103zM622 1087q184 0 300 -110q115 -111 114 -303q0 -287 -154 -496t-431 -209q-201 0 -312 119q-111 118 -111 308t68 342t205 251q137 98 321 98zM158 406q0 -144 80 -236t226 -92t248 93q195 179 195 487q0 140 -80 231q-80 90 -223 90
t-247 -89q-199 -172 -199 -484z" />
    <glyph glyph-name="oacute" unicode="&#xf3;" 
d="M559 1204l238 295h166l-295 -295h-109zM622 1087q184 0 300 -110q115 -111 114 -303q0 -287 -154 -496t-431 -209q-201 0 -312 119q-111 118 -111 308t68 342t205 251q137 98 321 98zM158 406q0 -144 80 -236t226 -92t248 93q195 179 195 487q0 140 -80 231
q-80 90 -223 90t-247 -89q-199 -172 -199 -484z" />
    <glyph glyph-name="ocircumflex" unicode="&#xf4;" 
d="M698 1421l-206 -217h-125l278 295h129l176 -295h-116zM622 1087q184 0 300 -110q115 -111 114 -303q0 -287 -154 -496t-431 -209q-201 0 -312 119q-111 118 -111 308t68 342t205 251q137 98 321 98zM158 406q0 -144 80 -236t226 -92t248 93q195 179 195 487
q0 140 -80 231q-80 90 -223 90t-247 -89q-199 -172 -199 -484z" />
    <glyph glyph-name="otilde" unicode="&#xf5;" 
d="M843 1249q-62 0 -165 56q-94 59 -130 59t-64 -37t-35 -78h-84q55 207 190 207q49 0 143 -53q94 -61 144 -62q28 0 56 39t36 76h82q-18 -86 -60 -137q-51 -70 -113 -70zM622 1087q184 0 300 -110q115 -111 114 -303q0 -287 -154 -496t-431 -209q-201 0 -312 119
q-111 118 -111 308t68 342t205 251q137 98 321 98zM158 406q0 -144 80 -236t226 -92t248 93q195 179 195 487q0 140 -80 231q-80 90 -223 90t-247 -89q-199 -172 -199 -484z" />
    <glyph glyph-name="odieresis" unicode="&#xf6;" 
d="M762 1247l39 209h131l-41 -209h-129zM436 1247l39 209h131l-41 -209h-129zM622 1087q184 0 300 -110q115 -111 114 -303q0 -287 -154 -496t-431 -209q-201 0 -312 119q-111 118 -111 308t68 342t205 251q137 98 321 98zM158 406q0 -144 80 -236t226 -92t248 93
q195 179 195 487q0 140 -80 231q-80 90 -223 90t-247 -89q-199 -172 -199 -484z" />
    <glyph glyph-name="divide" unicode="&#xf7;" horiz-adv-x="1228" 
d="M1130 461h-1030v108h1030v-108zM500 928q0 47 34 81q34 33 80 33t81 -34q34 -34 34 -78q0 -45 -35 -81t-80 -36q-46 0 -80 34t-34 81zM500 102q0 47 34 81t80 34t81 -34q34 -34 34 -79q0 -44 -35 -80t-80 -36q-46 0 -80 34t-34 80z" />
    <glyph glyph-name="oslash" unicode="&#xf8;" 
d="M462 78q148 0 250 93q101 93 148 220t47 237t-35 191l-639 -641q81 -100 229 -100zM451 -31q-195 0 -308 117l-131 -131l-41 45l133 133q-76 113 -76 283t68 322t205 251t327 99t302 -121l119 118l45 -43l-123 -124q66 -102 65 -244q0 -287 -154 -496t-431 -209zM158 427
q0 -124 41 -198l639 645q-84 104 -230 104t-250 -88q-104 -89 -152 -214t-48 -249z" />
    <glyph glyph-name="ugrave" unicode="&#xf9;" horiz-adv-x="1099" 
d="M403 1499h152l168 -295h-102zM41 254q0 43 16 125l146 678h129l-148 -682q-14 -57 -14 -107q0 -98 62 -144t159 -46q143 0 256 119t158 317l117 543h129l-228 -1057h-118l36 193h-4q-63 -99 -163 -161t-231 -62q-130 0 -216 69q-86 70 -86 215z" />
    <glyph glyph-name="uacute" unicode="&#xfa;" horiz-adv-x="1099" 
d="M565 1204l238 295h166l-295 -295h-109zM41 254q0 43 16 125l146 678h129l-148 -682q-14 -57 -14 -107q0 -98 62 -144t159 -46q143 0 256 119t158 317l117 543h129l-228 -1057h-118l36 193h-4q-63 -99 -163 -161t-231 -62q-130 0 -216 69q-86 70 -86 215z" />
    <glyph glyph-name="ucircumflex" unicode="&#xfb;" horiz-adv-x="1099" 
d="M688 1421l-207 -217h-125l279 295h129l176 -295h-117zM41 254q0 43 16 125l146 678h129l-148 -682q-14 -57 -14 -107q0 -98 62 -144t159 -46q143 0 256 119t158 317l117 543h129l-228 -1057h-118l36 193h-4q-63 -99 -163 -161t-231 -62q-130 0 -216 69q-86 70 -86 215z
" />
    <glyph glyph-name="udieresis" unicode="&#xfc;" horiz-adv-x="1099" 
d="M743 1247l39 209h131l-41 -209h-129zM418 1247l39 209h131l-41 -209h-129zM41 254q0 43 16 125l146 678h129l-148 -682q-14 -57 -14 -107q0 -98 62 -144t159 -46q143 0 256 119t158 317l117 543h129l-228 -1057h-118l36 193h-4q-63 -99 -163 -161t-231 -62
q-130 0 -216 69q-86 70 -86 215z" />
    <glyph glyph-name="yacute" unicode="&#xfd;" horiz-adv-x="948" 
d="M537 1204l237 295h166l-295 -295h-108zM0 -391q-20 0 -58 5t-55 5l25 105q55 -6 111 -7q98 0 165 115l97 168l-195 1057h135l152 -897h4l487 897h140l-752 -1307q-82 -141 -256 -141z" />
    <glyph glyph-name="thorn" unicode="&#xfe;" horiz-adv-x="1175" 
d="M671 979q-140 0 -249 -96q-109 -95 -161 -229t-52 -273t78 -221q79 -82 201 -82t210 55q159 99 227 331q30 101 29 200q0 141 -71 228q-72 87 -212 87zM682 1087q197 -1 299 -117t102 -298q-1 -182 -69 -338q-68 -154 -203 -259t-287 -105q-319 -1 -356 241h-4l-129 -602
h-129l399 1853h129l-127 -592h4q59 109 147 163t224 54z" />
    <glyph glyph-name="ydieresis" unicode="&#xff;" horiz-adv-x="948" 
d="M668 1247l39 209h131l-41 -209h-129zM342 1247l39 209h131l-41 -209h-129zM0 -391q-20 0 -58 5t-55 5l25 105q55 -6 111 -7q98 0 165 115l97 168l-195 1057h135l152 -897h4l487 897h140l-752 -1307q-82 -141 -256 -141z" />
    <glyph glyph-name="Amacron" unicode="&#x100;" horiz-adv-x="1290" 
d="M1112 1696h-524l16 92h524zM-154 0l895 1462h152l266 -1462h-145l-74 455h-668l-270 -455h-156zM791 1343l-449 -770h578l-125 770h-4z" />
    <glyph glyph-name="amacron" unicode="&#x101;" horiz-adv-x="1062" 
d="M899 1307h-524l16 92h524zM346 78q152 0 250 83t129 226l41 178l-4 4q-36 -44 -152 -52q-14 -1 -45 -4q-49 -5 -134 -9t-123 -19q-38 -14 -81 -32t-63 -42q-53 -64 -53 -151q-1 -88 67 -135t168 -47zM573 1087q84 0 161 -17q77 -18 142 -74q64 -56 64 -141t-66 -359
q-34 -174 -51 -241q-18 -67 -18 -116q0 -43 67 -43q14 0 52 4l-19 -102q-51 -10 -106 -10q-109 0 -113 114q0 20 4 58l-4 4q-54 -90 -154 -142t-234 -52t-224 72q-92 73 -92 220q0 218 228 293q127 42 279 48q151 5 207 21t86 59q30 44 29 144q0 152 -223 152
q-295 0 -332 -238h-129q23 172 145 259q123 87 301 87z" />
    <glyph glyph-name="Abreve" unicode="&#x102;" horiz-adv-x="1290" 
d="M827 1700q180 0 238 174h76q-19 -121 -109 -194q-90 -72 -213 -72t-193 74t-65 192h78q8 -174 188 -174zM-154 0l895 1462h152l266 -1462h-145l-74 455h-668l-270 -455h-156zM791 1343l-449 -770h578l-125 770h-4z" />
    <glyph glyph-name="abreve" unicode="&#x103;" horiz-adv-x="1062" 
d="M637 1311q180 0 237 174h76q-20 -121 -109 -194t-212 -73t-193 74q-69 74 -65 193h78q8 -174 188 -174zM346 78q152 0 250 83t129 226l41 178l-4 4q-36 -44 -152 -52q-14 -1 -45 -4q-49 -5 -134 -9t-123 -19q-38 -14 -81 -32t-63 -42q-53 -64 -53 -151q-1 -88 67 -135
t168 -47zM573 1087q84 0 161 -17q77 -18 142 -74q64 -56 64 -141t-66 -359q-34 -174 -51 -241q-18 -67 -18 -116q0 -43 67 -43q14 0 52 4l-19 -102q-51 -10 -106 -10q-109 0 -113 114q0 20 4 58l-4 4q-54 -90 -154 -142t-234 -52t-224 72q-92 73 -92 220q0 218 228 293
q127 42 279 48q151 5 207 21t86 59q30 44 29 144q0 152 -223 152q-295 0 -332 -238h-129q23 172 145 259q123 87 301 87z" />
    <glyph glyph-name="Aogonek" unicode="&#x104;" horiz-adv-x="1290" 
d="M791 1343l-449 -770h578l-125 770h-4zM911 -416q-75 0 -113 35t-38 90q0 88 80 165t174 126l-74 455h-668l-270 -455h-156l895 1462h152l266 -1462h-26q-233 -156 -234 -268q0 -55 51 -56q74 0 148 93l59 -52q-104 -133 -246 -133z" />
    <glyph glyph-name="aogonek" unicode="&#x105;" horiz-adv-x="1062" 
d="M346 78q152 0 250 83t129 226l41 178l-4 4q-36 -44 -152 -52q-14 -1 -45 -4q-49 -5 -134 -9t-123 -19q-38 -14 -81 -32t-63 -42q-53 -64 -53 -151q-1 -88 67 -135t168 -47zM-18 262q0 218 228 293q127 42 279 48q151 5 207 21t86 59q30 44 29 144q0 152 -223 152
q-295 0 -332 -238h-129q23 172 145 259q123 87 301 87q84 0 161 -17q77 -18 142 -74q64 -56 64 -141t-66 -359q-34 -174 -51 -241q-18 -67 -18 -116q0 -43 67 -43q14 0 52 4l-19 -102q-29 -4 -59 -6q-31 -2 -39 -4q-203 -148 -203 -256q0 -55 49 -56q68 0 140 93l57 -52
q-98 -133 -234 -133q-72 0 -108 36t-37 89q0 127 168 244q31 25 88 55q-37 37 -39 75q-2 39 2 77l-4 4q-54 -90 -154 -142t-234 -52t-224 72q-92 73 -92 220z" />
    <glyph glyph-name="Cacute" unicode="&#x106;" horiz-adv-x="1441" 
d="M819 1626l238 295h166l-295 -295h-109zM875 1374q-173 0 -300 -68t-205 -181q-160 -233 -161 -545q0 -224 129 -358t354 -134q174 0 309 111t187 301h139q-51 -238 -220 -384t-445 -146t-434 169q-159 170 -158 453q0 238 92 440t276 332q184 129 425 129t391 -128
t155 -366h-139q-4 183 -113 279t-282 96z" />
    <glyph glyph-name="cacute" unicode="&#x107;" horiz-adv-x="1062" 
d="M565 1204l238 295h166l-295 -295h-109zM599 979q-133 0 -239 -88q-202 -167 -202 -485q0 -147 74 -238q74 -90 210 -90t226 72t133 192h129q-123 -373 -494 -373q-192 0 -300 119q-108 120 -108 304t68 338q66 154 200 255q134 102 311 102t285 -91t105 -269h-129
q8 115 -64 183t-205 69z" />
    <glyph glyph-name="Ccircumflex" unicode="&#x108;" horiz-adv-x="1441" 
d="M946 1810l-207 -217h-125l279 295h129l176 -295h-117zM875 1374q-173 0 -300 -68t-205 -181q-160 -233 -161 -545q0 -224 129 -358t354 -134q174 0 309 111t187 301h139q-51 -238 -220 -384t-445 -146t-434 169q-159 170 -158 453q0 238 92 440t276 332q184 129 425 129
t391 -128t155 -366h-139q-4 183 -113 279t-282 96z" />
    <glyph glyph-name="ccircumflex" unicode="&#x109;" horiz-adv-x="1062" 
d="M702 1421l-206 -217h-125l278 295h129l176 -295h-116zM599 979q-133 0 -239 -88q-202 -167 -202 -485q0 -147 74 -238q74 -90 210 -90t226 72t133 192h129q-123 -373 -494 -373q-192 0 -300 119q-108 120 -108 304t68 338q66 154 200 255q134 102 311 102t285 -91
t105 -269h-129q8 115 -64 183t-205 69z" />
    <glyph glyph-name="Cdotaccent" unicode="&#x10a;" horiz-adv-x="1441" 
d="M825 1636l39 209h131l-41 -209h-129zM875 1374q-173 0 -300 -68t-205 -181q-160 -233 -161 -545q0 -224 129 -358t354 -134q174 0 309 111t187 301h139q-51 -238 -220 -384t-445 -146t-434 169q-159 170 -158 453q0 238 92 440t276 332q184 129 425 129t391 -128
t155 -366h-139q-4 183 -113 279t-282 96z" />
    <glyph glyph-name="cdotaccent" unicode="&#x10b;" horiz-adv-x="1062" 
d="M571 1247l39 209h131l-41 -209h-129zM599 979q-133 0 -239 -88q-202 -167 -202 -485q0 -147 74 -238q74 -90 210 -90t226 72t133 192h129q-123 -373 -494 -373q-192 0 -300 119q-108 120 -108 304t68 338q66 154 200 255q134 102 311 102t285 -91t105 -269h-129
q8 115 -64 183t-205 69z" />
    <glyph glyph-name="Ccaron" unicode="&#x10c;" horiz-adv-x="1441" 
d="M885 1698l207 223h125l-279 -295h-129l-176 295h117zM875 1374q-173 0 -300 -68t-205 -181q-160 -233 -161 -545q0 -224 129 -358t354 -134q174 0 309 111t187 301h139q-51 -238 -220 -384t-445 -146t-434 169q-159 170 -158 453q0 238 92 440t276 332q184 129 425 129
t391 -128t155 -366h-139q-4 183 -113 279t-282 96z" />
    <glyph glyph-name="ccaron" unicode="&#x10d;" horiz-adv-x="1062" 
d="M653 1276l207 223h125l-278 -295h-129l-177 295h117zM599 979q-133 0 -239 -88q-202 -167 -202 -485q0 -147 74 -238q74 -90 210 -90t226 72t133 192h129q-123 -373 -494 -373q-192 0 -300 119q-108 120 -108 304t68 338q66 154 200 255q134 102 311 102t285 -91
t105 -269h-129q8 115 -64 183t-205 69z" />
    <glyph glyph-name="Dcaron" unicode="&#x10e;" horiz-adv-x="1402" 
d="M778 1665l207 223h125l-279 -295h-129l-176 295h117zM1217 903q0 440 -441 440h-334l-266 -1224h352q176 -1 312 63t216 176q161 224 161 545zM799 1462q299 0 428 -152t129 -410q0 -534 -363 -775q-186 -125 -438 -125h-545l318 1462h471z" />
    <glyph glyph-name="dcaron" unicode="&#x10f;" horiz-adv-x="1347" 
d="M1255 1167l164 295h166l-229 -295h-101zM441 78q140 0 249 96t161 229t52 273t-78 221q-79 82 -201 82q-230 0 -349 -192t-117 -394q0 -141 72 -228t211 -87zM29 384q0 183 68 338q69 155 204 260t305 105q279 0 344 -229h4l127 604h129l-313 -1462h-125l47 190h-4
q-72 -112 -162 -166t-223 -55q-197 0 -299 116t-102 299z" />
    <glyph glyph-name="Dcroat" unicode="&#x110;" horiz-adv-x="1402" 
d="M799 1462q299 0 428 -152t129 -410q0 -534 -363 -775q-186 -125 -438 -125h-545l156 713h-162l21 92h161l142 657h471zM1217 903q0 440 -441 440h-334l-116 -538h436l-21 -92h-436l-129 -594h352q176 -1 312 63t216 176q161 224 161 545z" />
    <glyph glyph-name="dcroat" unicode="&#x111;" horiz-adv-x="1198" 
d="M441 78q140 0 249 96t161 229t52 273t-78 221q-79 82 -201 82q-230 0 -349 -192t-117 -394q0 -141 72 -228t211 -87zM29 384q0 183 68 338q69 155 204 260t305 105q279 0 344 -229h4l70 338h-322l17 92h325l37 174h129l-39 -174h175l-17 -92h-176l-256 -1196h-125l47 190
h-4q-72 -112 -162 -166t-223 -55q-197 0 -299 116t-102 299z" />
    <glyph glyph-name="Emacron" unicode="&#x112;" horiz-adv-x="1175" 
d="M1102 1696h-524l16 92h524zM10 0l312 1462h981l-27 -119h-840l-112 -528h784l-27 -119h-782l-123 -577h860l-26 -119h-1000z" />
    <glyph glyph-name="emacron" unicode="&#x113;" horiz-adv-x="1062" 
d="M897 1307h-524l16 92h524zM158 412q0 -150 78 -242t216 -92t230 72t129 190h129q-113 -371 -481 -371q-207 0 -319 119t-111 330q-1 172 65 322t199 249q133 98 314 98t288 -112q106 -113 106 -299q0 -102 -10 -182h-827q-6 -37 -6 -82zM576 979q-142 -1 -252 -111
t-144 -266h690l2 82q0 135 -77 215t-219 80z" />
    <glyph glyph-name="Ebreve" unicode="&#x114;" horiz-adv-x="1175" 
d="M829 1700q180 0 238 174h76q-19 -121 -109 -194q-90 -72 -213 -72t-193 74t-65 192h78q8 -174 188 -174zM10 0l312 1462h981l-27 -119h-840l-112 -528h784l-27 -119h-782l-123 -577h860l-26 -119h-1000z" />
    <glyph glyph-name="ebreve" unicode="&#x115;" horiz-adv-x="1062" 
d="M628 1311q180 0 238 174h76q-20 -121 -109 -194t-213 -73t-192 74q-70 74 -66 193h78q8 -174 188 -174zM158 412q0 -150 78 -242t216 -92t230 72t129 190h129q-113 -371 -481 -371q-207 0 -319 119t-111 330q-1 172 65 322t199 249q133 98 314 98t288 -112
q106 -113 106 -299q0 -102 -10 -182h-827q-6 -37 -6 -82zM576 979q-142 -1 -252 -111t-144 -266h690l2 82q0 135 -77 215t-219 80z" />
    <glyph glyph-name="Edotaccent" unicode="&#x116;" horiz-adv-x="1175" 
d="M754 1636l39 209h131l-41 -209h-129zM10 0l312 1462h981l-27 -119h-840l-112 -528h784l-27 -119h-782l-123 -577h860l-26 -119h-1000z" />
    <glyph glyph-name="edotaccent" unicode="&#x117;" horiz-adv-x="1062" 
d="M553 1247l39 209h131l-41 -209h-129zM158 412q0 -150 78 -242t216 -92t230 72t129 190h129q-113 -371 -481 -371q-207 0 -319 119t-111 330q-1 172 65 322t199 249q133 98 314 98t288 -112q106 -113 106 -299q0 -102 -10 -182h-827q-6 -37 -6 -82zM576 979
q-142 -1 -252 -111t-144 -266h690l2 82q0 135 -77 215t-219 80z" />
    <glyph glyph-name="Eogonek" unicode="&#x118;" horiz-adv-x="1175" 
d="M702 -416q-76 0 -114 35t-37 90q0 88 80 165t174 126h-795l312 1462h981l-27 -119h-840l-112 -528h784l-27 -119h-782l-123 -577h860l-26 -119h-86q-233 -156 -234 -268q0 -55 51 -56q74 0 148 93l59 -52q-104 -133 -246 -133z" />
    <glyph glyph-name="eogonek" unicode="&#x119;" horiz-adv-x="1062" 
d="M576 979q-142 -1 -252 -111t-144 -266h690l2 82q0 135 -77 215t-219 80zM158 412q0 -150 78 -242t216 -92t230 72t129 190h129q-51 -178 -174 -274q-100 -80 -250 -95q-86 -63 -135 -121q-55 -70 -55 -122t51 -52q74 0 147 93l60 -52q-104 -133 -246 -133q-76 0 -114 35
t-38 90q0 127 176 244q6 2 14 10t15 10q-163 14 -263 126q-100 111 -100 301t66 340t199 249q133 98 314 98t288 -112q106 -113 106 -299q0 -102 -10 -182h-827q-6 -37 -6 -82z" />
    <glyph glyph-name="Ecaron" unicode="&#x11a;" horiz-adv-x="1175" 
d="M825 1665l207 223h125l-278 -295h-129l-177 295h117zM10 0l312 1462h981l-27 -119h-840l-112 -528h784l-27 -119h-782l-123 -577h860l-26 -119h-1000z" />
    <glyph glyph-name="ecaron" unicode="&#x11b;" horiz-adv-x="1062" 
d="M618 1276l207 223h125l-278 -295h-129l-176 295h116zM158 412q0 -150 78 -242t216 -92t230 72t129 190h129q-113 -371 -481 -371q-207 0 -319 119t-111 330q-1 172 65 322t199 249q133 98 314 98t288 -112q106 -113 106 -299q0 -102 -10 -182h-827q-6 -37 -6 -82z
M576 979q-142 -1 -252 -111t-144 -266h690l2 82q0 135 -77 215t-219 80z" />
    <glyph glyph-name="Gcircumflex" unicode="&#x11c;" horiz-adv-x="1517" 
d="M936 1810l-207 -217h-125l279 295h129l176 -295h-117zM864 1374q-196 0 -347 -114t-229 -293q-78 -178 -79 -393q0 -214 122 -350t353 -136t387 150t195 387h-504l29 118h624l-153 -743h-95l25 246h-4q-174 -276 -531 -277q-279 0 -433 164t-154 449q0 242 88 446
t273 334q185 131 447 131t411 -125t157 -356h-139q-8 178 -127 270q-120 92 -316 92z" />
    <glyph glyph-name="gcircumflex" unicode="&#x11d;" 
d="M733 1421l-207 -217h-125l279 295h129l176 -295h-117zM172 463q0 -143 73 -237t212 -95q184 0 303 165t119 359q0 150 -70 237t-219 87q-186 -1 -302 -161t-116 -355zM367 -422q-176 0 -290 82t-118 260h129q0 -125 84 -179t219 -54t212 74q40 38 68 75q59 78 107 293
q14 63 21 84l-4 4q-51 -90 -151 -142t-210 -52q-184 0 -288 120q-103 121 -103 295q0 364 253 554q126 95 270 95q144 -1 245 -65q100 -64 119 -182h4l45 217h119l-201 -946q-59 -287 -176 -410t-354 -123z" />
    <glyph glyph-name="Gbreve" unicode="&#x11e;" horiz-adv-x="1517" 
d="M897 1733q180 0 238 174h75q-20 -121 -109 -194t-212 -73t-193 74q-69 74 -65 193h78q8 -174 188 -174zM864 1374q-196 0 -347 -114t-229 -293q-78 -178 -79 -393q0 -214 122 -350t353 -136t387 150t195 387h-504l29 118h624l-153 -743h-95l25 246h-4
q-174 -276 -531 -277q-279 0 -433 164t-154 449q0 242 88 446t273 334q185 131 447 131t411 -125t157 -356h-139q-8 178 -127 270q-120 92 -316 92z" />
    <glyph glyph-name="gbreve" unicode="&#x11f;" 
d="M698 1311q180 0 238 174h76q-20 -121 -110 -194t-212 -73t-192 74t-66 193h78q8 -174 188 -174zM172 463q0 -143 73 -237t212 -95q184 0 303 165t119 359q0 150 -70 237t-219 87q-186 -1 -302 -161t-116 -355zM367 -422q-176 0 -290 82t-118 260h129q0 -125 84 -179
t219 -54t212 74q40 38 68 75q59 78 107 293q14 63 21 84l-4 4q-51 -90 -151 -142t-210 -52q-184 0 -288 120q-103 121 -103 295q0 364 253 554q126 95 270 95q144 -1 245 -65q100 -64 119 -182h4l45 217h119l-201 -946q-59 -287 -176 -410t-354 -123z" />
    <glyph glyph-name="Gdotaccent" unicode="&#x120;" horiz-adv-x="1517" 
d="M836 1636l38 209h132l-41 -209h-129zM864 1374q-196 0 -347 -114t-229 -293q-78 -178 -79 -393q0 -214 122 -350t353 -136t387 150t195 387h-504l29 118h624l-153 -743h-95l25 246h-4q-174 -276 -531 -277q-279 0 -433 164t-154 449q0 242 88 446t273 334
q185 131 447 131t411 -125t157 -356h-139q-8 178 -127 270q-120 92 -316 92z" />
    <glyph glyph-name="gdotaccent" unicode="&#x121;" 
d="M600 1247l39 209h131l-41 -209h-129zM172 463q0 -143 73 -237t212 -95q184 0 303 165t119 359q0 150 -70 237t-219 87q-186 -1 -302 -161t-116 -355zM367 -422q-176 0 -290 82t-118 260h129q0 -125 84 -179t219 -54t212 74q40 38 68 75q59 78 107 293q14 63 21 84l-4 4
q-51 -90 -151 -142t-210 -52q-184 0 -288 120q-103 121 -103 295q0 364 253 554q126 95 270 95q144 -1 245 -65q100 -64 119 -182h4l45 217h119l-201 -946q-59 -287 -176 -410t-354 -123z" />
    <glyph glyph-name="Gcommaaccent" unicode="&#x122;" horiz-adv-x="1517" 
d="M547 -102h176l-35 -164q-33 -139 -207 -150l13 58q82 14 94 69h-80zM864 1374q-196 0 -347 -114t-229 -293q-78 -178 -79 -393q0 -214 122 -350t353 -136t387 150t195 387h-504l29 118h624l-153 -743h-95l25 246h-4q-174 -276 -531 -277q-279 0 -433 164t-154 449
q0 242 88 446t273 334q185 131 447 131t411 -125t157 -356h-139q-8 178 -127 270q-120 92 -316 92z" />
    <glyph glyph-name="gcommaaccent" unicode="&#x123;" 
d="M748 1276h-177l35 164q33 139 207 149l-12 -57q-82 -14 -94 -70h79zM172 463q0 -143 73 -237t212 -95q184 0 303 165t119 359q0 150 -70 237t-219 87q-186 -1 -302 -161t-116 -355zM367 -422q-176 0 -290 82t-118 260h129q0 -125 84 -179t219 -54t212 74q40 38 68 75
q59 78 107 293q14 63 21 84l-4 4q-51 -90 -151 -142t-210 -52q-184 0 -288 120q-103 121 -103 295q0 364 253 554q126 95 270 95q144 -1 245 -65q100 -64 119 -182h4l45 217h119l-201 -946q-59 -287 -176 -410t-354 -123z" />
    <glyph glyph-name="Hcircumflex" unicode="&#x124;" horiz-adv-x="1441" 
d="M926 1810l-207 -217h-125l278 295h129l177 -295h-117zM10 0l312 1462h139l-135 -635h845l136 635h139l-311 -1462h-140l152 709h-846l-151 -709h-140z" />
    <glyph glyph-name="hcircumflex" unicode="&#x125;" horiz-adv-x="1099" 
d="M745 1810l-206 -217h-125l278 295h129l176 -295h-116zM684 1087q131 1 217 -69t86 -215q0 -43 -16 -125l-146 -678h-129l148 682q14 57 14 106q0 98 -62 144t-159 47q-141 0 -257 -119t-157 -317l-117 -543h-129l316 1462h129l-129 -598h4q57 98 157 160t230 63z" />
    <glyph glyph-name="Hbar" unicode="&#x126;" horiz-adv-x="1441" 
d="M322 807h845l33 158h-846zM10 0l312 1462h139l-86 -405h846l86 405h139l-311 -1462h-140l148 688h-846l-147 -688h-140z" />
    <glyph glyph-name="hbar" unicode="&#x127;" horiz-adv-x="1150" 
d="M735 1087q131 1 217 -69t86 -215q0 -43 -16 -125l-145 -678h-129l147 682q14 57 14 106q0 98 -62 144t-159 47q-141 0 -257 -119t-157 -317l-116 -543h-129l258 1196h-189l17 92h190l39 174h129l-39 -174h266l-16 -92h-268l-72 -332h4q56 98 156 160t231 63z" />
    <glyph glyph-name="Itilde" unicode="&#x128;" horiz-adv-x="454" 
d="M576 1638q-62 0 -164 56q-94 59 -130 59t-64 -37t-36 -78h-84q55 207 191 207q49 0 143 -53q94 -61 133 -61q39 1 67 39t36 75h82q-18 -86 -60 -137q-52 -70 -114 -70zM10 0l309 1462h140l-309 -1462h-140z" />
    <glyph glyph-name="itilde" unicode="&#x129;" horiz-adv-x="378" 
d="M454 1249q-62 0 -163 56q-94 59 -130 59t-64 -37t-36 -78h-84q55 207 191 207q49 0 143 -53q94 -61 144 -62q29 0 57 39t35 76h82q-18 -86 -60 -137q-53 -70 -115 -70zM106 0h-129l228 1057h129z" />
    <glyph glyph-name="Imacron" unicode="&#x12a;" horiz-adv-x="454" 
d="M684 1696h-524l16 92h524zM10 0l309 1462h140l-309 -1462h-140z" />
    <glyph glyph-name="imacron" unicode="&#x12b;" horiz-adv-x="378" 
d="M559 1307h-524l16 92h524zM106 0h-129l228 1057h129z" />
    <glyph glyph-name="Iogonek" unicode="&#x12e;" horiz-adv-x="454" 
d="M-51 -416q-68 0 -102 35t-33 90q0 154 227 291h-31l309 1462h140l-309 -1462h-3q-209 -154 -208 -268q0 -55 45 -56q66 0 133 93l53 -52q-92 -133 -221 -133z" />
    <glyph glyph-name="iogonek" unicode="&#x12f;" horiz-adv-x="378" 
d="M248 1255l45 207h129l-45 -207h-129zM-94 -416q-68 0 -102 35t-33 90q0 154 227 291h-21l228 1057h129l-228 -1057h-2q-209 -154 -208 -268q0 -55 45 -56q66 0 133 93l53 -52q-92 -133 -221 -133z" />
    <glyph glyph-name="Idotaccent" unicode="&#x130;" horiz-adv-x="454" 
d="M358 1636l39 209h131l-41 -209h-129zM10 0l309 1462h140l-309 -1462h-140z" />
    <glyph glyph-name="dotlessi" unicode="&#x131;" horiz-adv-x="378" 
d="M106 0h-129l228 1057h129z" />
    <glyph glyph-name="IJ" unicode="&#x132;" horiz-adv-x="1484" 
d="M795 88q167 0 241 103q59 84 90 229l224 1042h139l-234 -1093q-41 -201 -146 -300t-293 -99t-292 81q-104 82 -104 252q0 86 18 166h140q-18 -106 -18 -195q0 -90 70 -138q71 -48 165 -48zM10 0l309 1462h140l-309 -1462h-140z" />
    <glyph glyph-name="ij" unicode="&#x133;" horiz-adv-x="788" 
d="M219 -391q-16 0 -47 5t-43 5l25 107l73 -9q94 1 125 107l262 1233h129l-264 -1237q-27 -109 -85 -160t-175 -51zM657 1255l43 207h131l-45 -207h-129zM-23 0l228 1057h129l-228 -1057h-129zM248 1255l45 207h129l-45 -207h-129z" />
    <glyph glyph-name="Jcircumflex" unicode="&#x134;" horiz-adv-x="1024" 
d="M1010 1810l-207 -217h-125l278 295h129l177 -295h-117zM334 88q167 0 241 103q57 82 91 229l223 1042h139l-233 -1093q-41 -201 -147 -300t-292 -99q-188 0 -293 81q-104 82 -104 252q0 86 18 166h140q-19 -106 -19 -195q0 -90 71 -138t165 -48z" />
    <glyph glyph-name="jcircumflex" unicode="&#x135;" horiz-adv-x="378" 
d="M315 1421l-206 -217h-125l278 295h129l176 -295h-116zM-190 -391q-16 0 -48 5t-43 5l25 107l74 -9q94 1 125 107l262 1233h129l-264 -1237q-27 -109 -85 -160t-175 -51z" />
    <glyph glyph-name="Kcommaaccent" unicode="&#x136;" horiz-adv-x="1327" 
d="M461 -102h176l-35 -164q-33 -139 -207 -150l13 58q82 14 94 69h-80zM10 0l312 1462h139l-168 -780l4 -4l944 784h195l-750 -610l522 -852h-159l-465 766l-326 -260l-108 -506h-140z" />
    <glyph glyph-name="kcommaaccent" unicode="&#x137;" horiz-adv-x="948" 
d="M289 -102h176l-35 -164q-33 -139 -207 -150l13 58q82 14 94 69h-80zM-23 0l312 1462h129l-197 -917l4 -4l619 516h172l-500 -408l320 -649h-142l-280 571l-226 -188l-82 -383h-129z" />
    <glyph glyph-name="Lacute" unicode="&#x139;" horiz-adv-x="1099" 
d="M371 1593l237 295h166l-295 -295h-108zM10 0l316 1462h139l-289 -1343h809l-29 -119h-946z" />
    <glyph glyph-name="lacute" unicode="&#x13a;" horiz-adv-x="378" 
d="M297 1593l238 295h165l-294 -295h-109zM-23 0l316 1462h129l-316 -1462h-129z" />
    <glyph glyph-name="Lcommaaccent" unicode="&#x13b;" horiz-adv-x="1099" 
d="M373 -102h176l-35 -164q-33 -139 -207 -150l12 58q82 14 95 69h-80zM10 0l316 1462h139l-289 -1343h809l-29 -119h-946z" />
    <glyph glyph-name="lcommaaccent" unicode="&#x13c;" horiz-adv-x="378" 
d="M-63 -102h176l-35 -164q-33 -139 -207 -150l12 58q82 14 94 69h-79zM-23 0l316 1462h129l-316 -1462h-129z" />
    <glyph glyph-name="Lcaron" unicode="&#x13d;" horiz-adv-x="1099" 
d="M612 1167l164 295h166l-229 -295h-101zM10 0l316 1462h139l-289 -1343h809l-29 -119h-946z" />
    <glyph glyph-name="lcaron" unicode="&#x13e;" horiz-adv-x="555" 
d="M463 1167l164 295h166l-230 -295h-100zM-23 0l316 1462h129l-316 -1462h-129z" />
    <glyph glyph-name="Ldot" unicode="&#x13f;" horiz-adv-x="1099" 
d="M637 848l39 209h131l-41 -209h-129zM10 0l316 1462h139l-289 -1343h809l-29 -119h-946z" />
    <glyph glyph-name="ldot" unicode="&#x140;" horiz-adv-x="645" 
d="M438 848l39 209h131l-41 -209h-129zM-23 0l316 1462h129l-316 -1462h-129z" />
    <glyph glyph-name="Lslash" unicode="&#x141;" horiz-adv-x="1099" 
d="M145 629l181 833h139l-158 -735l516 313l-18 -110l-522 -318l-107 -493h809l-29 -119h-946l111 514l-193 -117l25 115z" />
    <glyph glyph-name="lslash" unicode="&#x142;" horiz-adv-x="378" 
d="M152 805l141 657h129l-119 -549l160 115l-23 -113l-161 -114l-173 -801h-129l150 692l-154 -108l25 112z" />
    <glyph glyph-name="Nacute" unicode="&#x143;" horiz-adv-x="1441" 
d="M819 1593l238 295h166l-295 -295h-109zM0 0l315 1462h158l584 -1306h4l270 1306h135l-319 -1462h-154l-583 1307h-4l-273 -1307h-133z" />
    <glyph glyph-name="nacute" unicode="&#x144;" horiz-adv-x="1099" 
d="M532 1204l238 295h166l-295 -295h-109zM685 1087q130 1 216 -69t86 -215q0 -43 -16 -125l-146 -678h-129l148 682q14 57 14 106q0 98 -62 144t-159 47q-141 0 -257 -119t-157 -317l-117 -543h-129l228 1057h119l-37 -193h4q63 98 163 160t231 63z" />
    <glyph glyph-name="Ncommaaccent" unicode="&#x145;" horiz-adv-x="1441" 
d="M475 -102h176l-35 -164q-33 -139 -206 -150l12 58q82 14 94 69h-80zM0 0l315 1462h158l584 -1306h4l270 1306h135l-319 -1462h-154l-583 1307h-4l-273 -1307h-133z" />
    <glyph glyph-name="ncommaaccent" unicode="&#x146;" horiz-adv-x="1099" 
d="M311 -102h176l-34 -164q-33 -139 -207 -150l12 58q82 14 94 69h-80zM685 1087q130 1 216 -69t86 -215q0 -43 -16 -125l-146 -678h-129l148 682q14 57 14 106q0 98 -62 144t-159 47q-141 0 -257 -119t-157 -317l-117 -543h-129l228 1057h119l-37 -193h4q63 98 163 160
t231 63z" />
    <glyph glyph-name="Ncaron" unicode="&#x147;" horiz-adv-x="1441" 
d="M897 1665l207 223h125l-279 -295h-129l-176 295h117zM0 0l315 1462h158l584 -1306h4l270 1306h135l-319 -1462h-154l-583 1307h-4l-273 -1307h-133z" />
    <glyph glyph-name="ncaron" unicode="&#x148;" horiz-adv-x="1099" 
d="M645 1276l207 223h125l-279 -295h-129l-176 295h117zM685 1087q130 1 216 -69t86 -215q0 -43 -16 -125l-146 -678h-129l148 682q14 57 14 106q0 98 -62 144t-159 47q-141 0 -257 -119t-157 -317l-117 -543h-129l228 1057h119l-37 -193h4q63 98 163 160t231 63z" />
    <glyph glyph-name="napostrophe" unicode="&#x149;" horiz-adv-x="1171" 
d="M285 1649h176l-35 -164q-33 -139 -207 -150l12 58q82 14 95 69h-80zM756 1087q130 0 217 -69q86 -70 86 -215q0 -43 -17 -125l-145 -678h-129l147 682q14 57 15 106q0 98 -62 144t-159 47q-141 0 -257 -119t-157 -317l-117 -543h-129l227 1057h119l-37 -193h4
q64 98 164 160t230 63z" />
    <glyph glyph-name="Omacron" unicode="&#x14c;" horiz-adv-x="1517" 
d="M1190 1696h-524l16 92h524zM1331 846q0 238 -119 383t-350 145q-160 0 -287 -68t-205 -181q-160 -233 -161 -545q0 -224 129 -358q128 -134 336 -134t358 115t224 286t75 357zM670 -31q-283 0 -442 170t-158 453q0 238 92 440t276 332q184 129 444 129t425 -167
q164 -167 163 -445q0 -370 -205 -633q-99 -127 -253 -203t-342 -76z" />
    <glyph glyph-name="omacron" unicode="&#x14d;" 
d="M928 1307h-525l17 92h524zM622 1087q184 0 300 -110q115 -111 114 -303q0 -287 -154 -496t-431 -209q-201 0 -312 119q-111 118 -111 308t68 342t205 251q137 98 321 98zM158 406q0 -144 80 -236t226 -92t248 93q195 179 195 487q0 140 -80 231q-80 90 -223 90t-247 -89
q-199 -172 -199 -484z" />
    <glyph glyph-name="Obreve" unicode="&#x14e;" horiz-adv-x="1517" 
d="M926 1700q180 0 237 174h76q-19 -121 -109 -194q-90 -72 -213 -72t-193 74t-65 192h78q9 -174 189 -174zM1331 846q0 238 -119 383t-350 145q-160 0 -287 -68t-205 -181q-160 -233 -161 -545q0 -224 129 -358q128 -134 336 -134t358 115t224 286t75 357zM670 -31
q-283 0 -442 170t-158 453q0 238 92 440t276 332q184 129 444 129t425 -167q164 -167 163 -445q0 -370 -205 -633q-99 -127 -253 -203t-342 -76z" />
    <glyph glyph-name="obreve" unicode="&#x14f;" 
d="M659 1311q180 0 238 174h76q-19 -121 -109 -194t-213 -73t-193 74t-65 193h78q8 -174 188 -174zM622 1087q184 0 300 -110q115 -111 114 -303q0 -287 -154 -496t-431 -209q-201 0 -312 119q-111 118 -111 308t68 342t205 251q137 98 321 98zM158 406q0 -144 80 -236
t226 -92t248 93q195 179 195 487q0 140 -80 231q-80 90 -223 90t-247 -89q-199 -172 -199 -484z" />
    <glyph glyph-name="Ohungarumlaut" unicode="&#x150;" horiz-adv-x="1517" 
d="M686 1593l238 295h166l-295 -295h-109zM989 1593l238 295h166l-295 -295h-109zM1331 846q0 238 -119 383t-350 145q-160 0 -287 -68t-205 -181q-160 -233 -161 -545q0 -224 129 -358q128 -134 336 -134t358 115t224 286t75 357zM670 -31q-283 0 -442 170t-158 453
q0 238 92 440t276 332q184 129 444 129t425 -167q164 -167 163 -445q0 -370 -205 -633q-99 -127 -253 -203t-342 -76z" />
    <glyph glyph-name="ohungarumlaut" unicode="&#x151;" 
d="M432 1204l238 295h166l-295 -295h-109zM735 1204l238 295h166l-295 -295h-109zM622 1087q184 0 300 -110q115 -111 114 -303q0 -287 -154 -496t-431 -209q-201 0 -312 119q-111 118 -111 308t68 342t205 251q137 98 321 98zM158 406q0 -144 80 -236t226 -92t248 93
q195 179 195 487q0 140 -80 231q-80 90 -223 90t-247 -89q-199 -172 -199 -484z" />
    <glyph glyph-name="OE" unicode="&#x152;" horiz-adv-x="2123" 
d="M1251 1108q0 125 -122 196t-271 70q-188 0 -334 -116t-219 -288q-72 -172 -72 -379q0 -206 112 -354t327 -149q162 0 284 94t156 248l131 621q8 41 8 57zM656 -31q-274 0 -418 175q-143 175 -144 466q0 166 53 323t149 281t247 202q150 77 305 77q317 0 455 -211l38 180
h910l-27 -119h-778l-111 -528h717l-27 -119h-716l-121 -577h797l-27 -119h-932l29 131l-4 4q-121 -166 -395 -166z" />
    <glyph glyph-name="oe" unicode="&#x153;" horiz-adv-x="1857" 
d="M1239 78q129 0 219 70t127 192h129q-55 -176 -179 -273t-304 -98q-305 0 -373 275h-4q-57 -127 -167 -201t-249 -74q-188 0 -291 115q-102 115 -102 311q0 263 151 471q70 98 182 160t246 61q134 1 228 -69t111 -199h4q63 125 179 197t257 71q188 0 283 -120
q94 -121 94 -308q0 -75 -23 -165h-792q-17 -45 -17 -157q0 -111 81 -185t210 -74zM598 979q-129 0 -231 -95q-101 -94 -147 -224t-46 -267t70 -226t195 -89t211 61t131 161q91 199 91 419q0 113 -72 187t-202 73zM1360 979q-146 -1 -243 -105t-132 -272h660q6 49 6 90
q-4 127 -74 207q-71 80 -217 80z" />
    <glyph glyph-name="Racute" unicode="&#x154;" horiz-adv-x="1327" 
d="M731 1593l238 295h166l-295 -295h-109zM944 1462q186 0 284 -93t99 -263q0 -170 -104 -283t-267 -125v-4q186 -41 187 -262l-21 -305q0 -94 25 -127h-143q-20 12 -21 150l21 262q0 238 -201 237h-516l-137 -649h-140l312 1462h622zM807 768q168 0 274 82q107 82 107 225
t-58 205t-192 63h-502l-123 -575h494z" />
    <glyph glyph-name="racute" unicode="&#x155;" horiz-adv-x="645" 
d="M244 1204l237 295h166l-295 -295h-108zM655 1071h35q25 0 35 -2l-29 -129l-73 2q-161 -4 -261 -114t-137 -275l-119 -553h-129l228 1057h117l-54 -244h4q139 258 383 258z" />
    <glyph glyph-name="Rcommaaccent" unicode="&#x156;" horiz-adv-x="1327" 
d="M465 -102h176l-35 -164q-33 -139 -207 -150l13 58q82 14 94 69h-80zM944 1462q186 0 284 -93t99 -263q0 -170 -104 -283t-267 -125v-4q186 -41 187 -262l-21 -305q0 -94 25 -127h-143q-20 12 -21 150l21 262q0 238 -201 237h-516l-137 -649h-140l312 1462h622zM807 768
q168 0 274 82q107 82 107 225t-58 205t-192 63h-502l-123 -575h494z" />
    <glyph glyph-name="rcommaaccent" unicode="&#x157;" horiz-adv-x="645" 
d="M-61 -102h176l-35 -164q-33 -139 -207 -150l12 58q82 14 95 69h-80zM655 1071h35q25 0 35 -2l-29 -129l-73 2q-161 -4 -261 -114t-137 -275l-119 -553h-129l228 1057h117l-54 -244h4q139 258 383 258z" />
    <glyph glyph-name="Rcaron" unicode="&#x158;" horiz-adv-x="1327" 
d="M829 1665l207 223h125l-278 -295h-129l-176 295h116zM944 1462q186 0 284 -93t99 -263q0 -170 -104 -283t-267 -125v-4q186 -41 187 -262l-21 -305q0 -94 25 -127h-143q-20 12 -21 150l21 262q0 238 -201 237h-516l-137 -649h-140l312 1462h622zM807 768q168 0 274 82
q107 82 107 225t-58 205t-192 63h-502l-123 -575h494z" />
    <glyph glyph-name="rcaron" unicode="&#x159;" horiz-adv-x="645" 
d="M477 1276l207 223h125l-279 -295h-129l-176 295h117zM655 1071h35q25 0 35 -2l-29 -129l-73 2q-161 -4 -261 -114t-137 -275l-119 -553h-129l228 1057h117l-54 -244h4q139 258 383 258z" />
    <glyph glyph-name="Sacute" unicode="&#x15a;" horiz-adv-x="1290" 
d="M678 1593l237 295h166l-295 -295h-108zM1104 1036q0 184 -95 261t-269 77t-286 -75q-110 -75 -110 -218q0 -104 65 -155t181 -86l155 -47q163 -47 279 -122q115 -76 115 -251q0 -114 -63 -220q-38 -65 -97 -114t-165 -83t-241 -34q-259 0 -411 129t-139 383h139
q-12 -205 100 -299t298 -94t312 81t127 232q0 115 -73 170q-29 23 -46 35t-71 32t-106 35t-66 19l-143 43q-289 82 -289 340q0 207 151 313q152 105 382 105q230 1 373 -109q144 -110 132 -348h-139z" />
    <glyph glyph-name="sacute" unicode="&#x15b;" horiz-adv-x="985" 
d="M473 1204l238 295h166l-295 -295h-109zM127 344q0 -142 85 -204q86 -62 200 -62t197 50t83 144q0 65 -26 92t-41 40q-13 12 -49 30t-51 26t-60 23q-164 58 -229 108q-66 50 -89 98t-22 110q0 141 121 215q122 74 284 74t265 -82q102 -82 98 -258h-129q8 115 -63 173
t-180 58t-188 -41t-79 -139q0 -68 62 -114t201 -97q140 -52 173 -77q81 -61 95 -89q36 -70 36 -129q0 -164 -126 -244t-298 -80q-171 -1 -289 95t-110 280h129z" />
    <glyph glyph-name="Scircumflex" unicode="&#x15c;" horiz-adv-x="1290" 
d="M825 1810l-207 -217h-124l278 295h129l176 -295h-116zM1104 1036q0 184 -95 261t-269 77t-286 -75q-110 -75 -110 -218q0 -104 65 -155t181 -86l155 -47q163 -47 279 -122q115 -76 115 -251q0 -114 -63 -220q-38 -65 -97 -114t-165 -83t-241 -34q-259 0 -411 129
t-139 383h139q-12 -205 100 -299t298 -94t312 81t127 232q0 115 -73 170q-29 23 -46 35t-71 32t-106 35t-66 19l-143 43q-289 82 -289 340q0 207 151 313q152 105 382 105q230 1 373 -109q144 -110 132 -348h-139z" />
    <glyph glyph-name="scircumflex" unicode="&#x15d;" horiz-adv-x="985" 
d="M608 1421l-207 -217h-125l279 295h129l176 -295h-117zM127 344q0 -142 85 -204q86 -62 200 -62t197 50t83 144q0 65 -26 92t-41 40q-13 12 -49 30t-51 26t-60 23q-164 58 -229 108q-66 50 -89 98t-22 110q0 141 121 215q122 74 284 74t265 -82q102 -82 98 -258h-129
q8 115 -63 173t-180 58t-188 -41t-79 -139q0 -68 62 -114t201 -97q140 -52 173 -77q81 -61 95 -89q36 -70 36 -129q0 -164 -126 -244t-298 -80q-171 -1 -289 95t-110 280h129z" />
    <glyph glyph-name="Scedilla" unicode="&#x15e;" horiz-adv-x="1290" 
d="M424 -346q126 0 127 82q0 40 -32 62t-77 22t-82 -19l-32 37l123 139q-70 12 -105 23q-160 45 -246 167t-77 314h139q-12 -205 100 -299t298 -94t312 81t127 232q0 115 -73 170q-29 23 -46 35t-71 32t-106 35t-66 19l-143 43q-289 82 -289 340q0 207 151 313
q152 105 382 105t373 -110q144 -110 132 -347h-139q0 184 -95 261t-269 77t-286 -75q-110 -75 -110 -218q0 -104 65 -155t181 -86l155 -47q163 -47 279 -122q115 -76 115 -251q0 -114 -63 -220q-38 -65 -97 -114t-165 -83t-241 -34q-37 0 -55 2l-84 -86l4 -4q24 8 82 8
q58 1 101 -35t43 -111t-68 -117t-162 -42t-186 45l28 60q90 -35 148 -35z" />
    <glyph glyph-name="Scedilla" unicode="&#xf6c1;" horiz-adv-x="1290" 
d="M424 -346q126 0 127 82q0 40 -32 62t-77 22t-82 -19l-32 37l123 139q-70 12 -105 23q-160 45 -246 167t-77 314h139q-12 -205 100 -299t298 -94t312 81t127 232q0 115 -73 170q-29 23 -46 35t-71 32t-106 35t-66 19l-143 43q-289 82 -289 340q0 207 151 313
q152 105 382 105t373 -110q144 -110 132 -347h-139q0 184 -95 261t-269 77t-286 -75q-110 -75 -110 -218q0 -104 65 -155t181 -86l155 -47q163 -47 279 -122q115 -76 115 -251q0 -114 -63 -220q-38 -65 -97 -114t-165 -83t-241 -34q-37 0 -55 2l-84 -86l4 -4q24 8 82 8
q58 1 101 -35t43 -111t-68 -117t-162 -42t-186 45l28 60q90 -35 148 -35z" />
    <glyph glyph-name="scedilla" unicode="&#x15f;" horiz-adv-x="985" 
d="M276 -346q127 0 125 82q1 40 -31 62t-77 22t-82 -19l-33 37l123 139q-159 34 -235 131q-75 97 -68 236h129q0 -142 85 -204q86 -62 200 -62t197 50t83 144q0 65 -26 92t-41 40q-13 12 -49 30t-51 26t-60 23q-164 58 -229 108q-66 50 -89 98t-22 110q0 141 121 215
q122 74 284 74t265 -82q102 -82 98 -258h-129q8 115 -63 173t-180 58t-188 -41t-79 -139q0 -68 62 -114t201 -97q140 -52 173 -77q81 -61 95 -89q36 -70 36 -129q0 -164 -126 -244t-300 -80h-28l-82 -84l4 -4q25 8 82 8q57 1 100 -35t43 -111t-68 -117t-162 -42t-186 45
l29 60q91 -35 149 -35z" />
    <glyph glyph-name="scedilla" unicode="&#xf6c2;" horiz-adv-x="985" 
d="M276 -346q127 0 125 82q1 40 -31 62t-77 22t-82 -19l-33 37l123 139q-159 34 -235 131q-75 97 -68 236h129q0 -142 85 -204q86 -62 200 -62t197 50t83 144q0 65 -26 92t-41 40q-13 12 -49 30t-51 26t-60 23q-164 58 -229 108q-66 50 -89 98t-22 110q0 141 121 215
q122 74 284 74t265 -82q102 -82 98 -258h-129q8 115 -63 173t-180 58t-188 -41t-79 -139q0 -68 62 -114t201 -97q140 -52 173 -77q81 -61 95 -89q36 -70 36 -129q0 -164 -126 -244t-300 -80h-28l-82 -84l4 -4q25 8 82 8q57 1 100 -35t43 -111t-68 -117t-162 -42t-186 45
l29 60q91 -35 149 -35z" />
    <glyph glyph-name="Scaron" unicode="&#x160;" horiz-adv-x="1290" 
d="M784 1665l207 223h125l-278 -295h-129l-177 295h117zM1104 1036q0 184 -95 261t-269 77t-286 -75q-110 -75 -110 -218q0 -104 65 -155t181 -86l155 -47q163 -47 279 -122q115 -76 115 -251q0 -114 -63 -220q-38 -65 -97 -114t-165 -83t-241 -34q-259 0 -411 129t-139 383
h139q-12 -205 100 -299t298 -94t312 81t127 232q0 115 -73 170q-29 23 -46 35t-71 32t-106 35t-66 19l-143 43q-289 82 -289 340q0 207 151 313q152 105 382 105q230 1 373 -109q144 -110 132 -348h-139z" />
    <glyph glyph-name="scaron" unicode="&#x161;" horiz-adv-x="985" 
d="M578 1276l206 223h125l-278 -295h-129l-176 295h116zM127 344q0 -142 85 -204q86 -62 200 -62t197 50t83 144q0 65 -26 92t-41 40q-13 12 -49 30t-51 26t-60 23q-164 58 -229 108q-66 50 -89 98t-22 110q0 141 121 215q122 74 284 74t265 -82q102 -82 98 -258h-129
q8 115 -63 173t-180 58t-188 -41t-79 -139q0 -68 62 -114t201 -97q140 -52 173 -77q81 -61 95 -89q36 -70 36 -129q0 -164 -126 -244t-298 -80q-171 -1 -289 95t-110 280h129z" />
    <glyph glyph-name="Tcommaaccent" unicode="&#x162;" 
d="M307 -102h176l-34 -164q-33 -139 -207 -150l12 58q82 14 94 69h-80zM141 1343l25 119h1143l-25 -119h-502l-293 -1343h-139l293 1343h-502z" />
    <glyph glyph-name="tcommaaccent" unicode="&#x163;" horiz-adv-x="606" 
d="M127 -102h176l-35 -164q-33 -139 -207 -150l13 58q82 14 94 69h-80zM291 96q74 0 151 13l-22 -113q-57 -8 -131 -8q-195 0 -195 151q0 43 15 109l145 700h-191l25 109h191l67 319h129l-67 -319h210l-20 -109h-215l-145 -678q-14 -70 -15 -100q0 -74 68 -74z" />
    <glyph glyph-name="Tcaron" unicode="&#x164;" 
d="M764 1665l207 223h125l-279 -295h-129l-176 295h117zM141 1343l25 119h1143l-25 -119h-502l-293 -1343h-139l293 1343h-502z" />
    <glyph glyph-name="tcaron" unicode="&#x165;" horiz-adv-x="710" 
d="M291 96q74 0 151 13l-22 -113q-57 -8 -131 -8q-195 0 -195 151q0 43 15 109l145 700h-191l25 109h191l67 319h129l-67 -319h210l-20 -109h-215l-145 -678q-14 -70 -15 -100q0 -74 68 -74zM618 1167l164 295h166l-229 -295h-101z" />
    <glyph glyph-name="Tbar" unicode="&#x166;" 
d="M141 1343l25 119h1143l-25 -119h-502l-75 -348h354l-17 -92h-358l-197 -903h-139l197 903h-354l16 92h358l76 348h-502z" />
    <glyph glyph-name="tbar" unicode="&#x167;" horiz-adv-x="606" 
d="M291 96q74 0 151 13l-22 -113q-57 -8 -131 -8q-195 0 -195 151q0 43 15 109l84 405h-207l16 92h209l43 203h-191l25 109h191l67 319h129l-67 -319h210l-20 -109h-215l-45 -203h235l-16 -92h-238l-81 -383q-14 -70 -15 -100q0 -74 68 -74z" />
    <glyph glyph-name="Utilde" unicode="&#x168;" horiz-adv-x="1441" 
d="M1062 1638q-62 0 -165 56q-94 59 -130 59t-64 -37t-35 -78h-84q55 207 190 207q49 0 144 -53q94 -61 133 -61q39 1 67 39t35 75h82q-18 -86 -59 -137q-52 -70 -114 -70zM637 88q393 0 473 385l207 989h139l-209 -999q-102 -494 -629 -494q-299 0 -441 176q-79 98 -79 244
q1 49 13 119l196 954h139l-194 -930q-14 -55 -14 -126q-8 -154 102 -236t297 -82z" />
    <glyph glyph-name="utilde" unicode="&#x169;" horiz-adv-x="1099" 
d="M816 1249q-62 0 -165 56q-94 59 -130 59q-35 0 -63 -37t-36 -78h-84q55 207 190 207q49 0 144 -53q94 -61 133 -61t67 38q28 39 35 76h82q-18 -86 -59 -137q-52 -70 -114 -70zM41 254q0 43 16 125l146 678h129l-148 -682q-14 -57 -14 -107q0 -98 62 -144t159 -46
q143 0 256 119t158 317l117 543h129l-228 -1057h-118l36 193h-4q-63 -99 -163 -161t-231 -62q-130 0 -216 69q-86 70 -86 215z" />
    <glyph glyph-name="Umacron" unicode="&#x16a;" horiz-adv-x="1441" 
d="M1161 1696h-524l16 92h525zM637 88q393 0 473 385l207 989h139l-209 -999q-102 -494 -629 -494q-299 0 -441 176q-79 98 -79 244q1 49 13 119l196 954h139l-194 -930q-14 -55 -14 -126q-8 -154 102 -236t297 -82z" />
    <glyph glyph-name="umacron" unicode="&#x16b;" horiz-adv-x="1099" 
d="M928 1307h-525l17 92h524zM41 254q0 43 16 125l146 678h129l-148 -682q-14 -57 -14 -107q0 -98 62 -144t159 -46q143 0 256 119t158 317l117 543h129l-228 -1057h-118l36 193h-4q-63 -99 -163 -161t-231 -62q-130 0 -216 69q-86 70 -86 215z" />
    <glyph glyph-name="Ubreve" unicode="&#x16c;" horiz-adv-x="1441" 
d="M890 1700q180 0 238 174h76q-20 -121 -109 -194q-89 -72 -212 -72t-193 73q-69 74 -65 193h77q8 -174 188 -174zM637 88q393 0 473 385l207 989h139l-209 -999q-102 -494 -629 -494q-299 0 -441 176q-79 98 -79 244q1 49 13 119l196 954h139l-194 -930q-14 -55 -14 -126
q-8 -154 102 -236t297 -82z" />
    <glyph glyph-name="ubreve" unicode="&#x16d;" horiz-adv-x="1099" 
d="M637 1311q180 0 237 174h76q-20 -121 -109 -194t-212 -73t-193 74q-69 74 -65 193h78q8 -174 188 -174zM41 254q0 43 16 125l146 678h129l-148 -682q-14 -57 -14 -107q0 -98 62 -144t159 -46q143 0 256 119t158 317l117 543h129l-228 -1057h-118l36 193h-4
q-63 -99 -163 -161t-231 -62q-130 0 -216 69q-86 70 -86 215z" />
    <glyph glyph-name="Uring" unicode="&#x16e;" horiz-adv-x="1441" 
d="M897 1626q53 0 94 41t41 94t-41 93t-94 40t-93 -40t-40 -93t40 -94t93 -41zM899 1556q-84 0 -144 62t-61 143q0 83 60 143t143 60q82 0 143 -60q62 -60 62 -144t-60 -144t-143 -60zM637 88q393 0 473 385l207 989h139l-209 -999q-102 -494 -629 -494q-299 0 -441 176
q-79 98 -79 244q1 49 13 119l196 954h139l-194 -930q-14 -55 -14 -126q-8 -154 102 -236t297 -82z" />
    <glyph glyph-name="uring" unicode="&#x16f;" horiz-adv-x="1099" 
d="M664 1257q53 0 94 41q41 40 41 94t-41 94t-94 40q-54 0 -94 -40t-40 -93t40 -95q41 -41 94 -41zM868 1391q0 -83 -59 -143t-143 -60t-145 61q-60 61 -60 143t60 143q61 60 143 60t143 -60t61 -144zM41 254q0 43 16 125l146 678h129l-148 -682q-14 -57 -14 -107
q0 -98 62 -144t159 -46q143 0 256 119t158 317l117 543h129l-228 -1057h-118l36 193h-4q-63 -99 -163 -161t-231 -62q-130 0 -216 69q-86 70 -86 215z" />
    <glyph glyph-name="Uhungarumlaut" unicode="&#x170;" horiz-adv-x="1441" 
d="M678 1593l237 295h166l-295 -295h-108zM981 1593l238 295h165l-294 -295h-109zM637 88q393 0 473 385l207 989h139l-209 -999q-102 -494 -629 -494q-299 0 -441 176q-79 98 -79 244q1 49 13 119l196 954h139l-194 -930q-14 -55 -14 -126q-8 -154 102 -236t297 -82z" />
    <glyph glyph-name="uhungarumlaut" unicode="&#x171;" horiz-adv-x="1099" 
d="M436 1204l238 295h166l-295 -295h-109zM739 1204l238 295h166l-295 -295h-109zM41 254q0 43 16 125l146 678h129l-148 -682q-14 -57 -14 -107q0 -98 62 -144t159 -46q143 0 256 119t158 317l117 543h129l-228 -1057h-118l36 193h-4q-63 -99 -163 -161t-231 -62
q-130 0 -216 69q-86 70 -86 215z" />
    <glyph glyph-name="Uogonek" unicode="&#x172;" horiz-adv-x="1441" 
d="M637 88q393 0 473 385l207 989h139l-209 -999q-51 -256 -217 -377q-147 -104 -375 -115q-82 -59 -135 -125t-53 -118t51 -52q74 0 148 93l59 -52q-104 -133 -246 -133q-75 0 -113 35t-38 90q0 127 176 244q5 5 31 20q-224 24 -346 155q-91 99 -91 261q1 49 13 119
l196 954h139l-194 -930q-14 -55 -14 -126q-8 -154 102 -236t297 -82z" />
    <glyph glyph-name="uogonek" unicode="&#x173;" horiz-adv-x="1099" 
d="M596 -268q0 -55 49 -56q68 0 139 93l58 -52q-98 -133 -234 -133q-72 0 -108 36t-37 89q0 88 76 164t166 127l36 193h-4q-63 -99 -163 -161t-231 -62q-130 0 -216 69q-86 70 -86 215q0 43 16 125l146 678h129l-148 -682q-14 -57 -14 -107q0 -98 62 -144t159 -46
q143 0 256 119t158 317l117 543h129l-228 -1057h-6q-221 -154 -221 -268z" />
    <glyph glyph-name="Wcircumflex" unicode="&#x174;" horiz-adv-x="1857" 
d="M1137 1810l-207 -217h-125l278 295h129l177 -295h-117zM254 0l-109 1462h140l75 -1300h5l622 1300h168l100 -1288h5l598 1288h145l-705 -1462h-151l-96 1329h-4l-639 -1329h-154z" />
    <glyph glyph-name="wcircumflex" unicode="&#x175;" horiz-adv-x="1517" 
d="M848 1421l-207 -217h-125l279 295h129l176 -295h-117zM184 0l-123 1057h136l84 -901h4l436 901h151l72 -893h4l449 893h137l-555 -1057h-139l-76 887h-4l-434 -887h-142z" />
    <glyph glyph-name="Ycircumflex" unicode="&#x176;" horiz-adv-x="1175" 
d="M829 1810l-206 -217h-125l278 295h129l176 -295h-116zM612 721l613 741h170l-733 -872l-130 -590h-141l133 604l-389 858h148z" />
    <glyph glyph-name="ycircumflex" unicode="&#x177;" horiz-adv-x="948" 
d="M621 1421l-207 -217h-125l278 295h129l176 -295h-116zM0 -391q-20 0 -58 5t-55 5l25 105q55 -6 111 -7q98 0 165 115l97 168l-195 1057h135l152 -897h4l487 897h140l-752 -1307q-82 -141 -256 -141z" />
    <glyph glyph-name="Ydieresis" unicode="&#x178;" horiz-adv-x="1175" 
d="M881 1636l39 209h131l-41 -209h-129zM555 1636l39 209h131l-41 -209h-129zM612 721l613 741h170l-733 -872l-130 -590h-141l133 604l-389 858h148z" />
    <glyph glyph-name="Zacute" unicode="&#x179;" horiz-adv-x="1175" 
d="M682 1593l238 295h165l-294 -295h-109zM201 1343l26 119h1055l-25 -116l-1169 -1227h975l-27 -119h-1138l26 123l1166 1220h-889z" />
    <glyph glyph-name="zacute" unicode="&#x17a;" horiz-adv-x="872" 
d="M446 1204l238 295h166l-295 -295h-109zM90 948l23 109h794l-22 -103l-822 -845h678l-22 -109h-838l23 104l817 844h-631z" />
    <glyph glyph-name="Zdotaccent" unicode="&#x17b;" horiz-adv-x="1175" 
d="M690 1636l39 209h131l-41 -209h-129zM201 1343l26 119h1055l-25 -116l-1169 -1227h975l-27 -119h-1138l26 123l1166 1220h-889z" />
    <glyph glyph-name="zdotaccent" unicode="&#x17c;" horiz-adv-x="872" 
d="M446 1247l39 209h131l-41 -209h-129zM90 948l23 109h794l-22 -103l-822 -845h678l-22 -109h-838l23 104l817 844h-631z" />
    <glyph glyph-name="Zcaron" unicode="&#x17d;" horiz-adv-x="1175" 
d="M754 1665l207 223h124l-278 -295h-129l-176 295h116zM201 1343l26 119h1055l-25 -116l-1169 -1227h975l-27 -119h-1138l26 123l1166 1220h-889z" />
    <glyph glyph-name="zcaron" unicode="&#x17e;" horiz-adv-x="872" 
d="M520 1276l207 223h125l-279 -295h-129l-176 295h117zM90 948l23 109h794l-22 -103l-822 -845h678l-22 -109h-838l23 104l817 844h-631z" />
    <glyph glyph-name="florin" unicode="&#x192;" 
d="M918 1462q80 0 139 -10l-29 -106q-41 8 -88 8q-92 0 -142 -48t-77 -151l-70 -256h242l-29 -108h-243l-240 -879q-74 -266 -305 -266q-63 0 -115 8l29 108q35 -8 80 -8q82 0 123 52t67 145l229 840h-202l28 108h205l70 256q82 307 328 307z" />
    <glyph glyph-name="Scommaaccent" unicode="&#x218;" horiz-adv-x="1290" 
d="M438 -102h176l-34 -164q-33 -139 -207 -150l12 58q82 14 94 69h-80zM1104 1036q0 184 -95 261t-269 77t-286 -75q-110 -75 -110 -218q0 -104 65 -155t181 -86l155 -47q163 -47 279 -122q115 -76 115 -251q0 -114 -63 -220q-38 -65 -97 -114t-165 -83t-241 -34
q-259 0 -411 129t-139 383h139q-12 -205 100 -299t298 -94t312 81t127 232q0 115 -73 170q-29 23 -46 35t-71 32t-106 35t-66 19l-143 43q-289 82 -289 340q0 207 151 313q152 105 382 105q230 1 373 -109q144 -110 132 -348h-139z" />
    <glyph glyph-name="scommaaccent" unicode="&#x219;" horiz-adv-x="985" 
d="M291 -102h176l-35 -164q-33 -139 -207 -150l13 58q82 14 94 69h-80zM127 344q0 -142 85 -204q86 -62 200 -62t197 50t83 144q0 65 -26 92t-41 40q-13 12 -49 30t-51 26t-60 23q-164 58 -229 108q-66 50 -89 98t-22 110q0 141 121 215q122 74 284 74t265 -82
q102 -82 98 -258h-129q8 115 -63 173t-180 58t-188 -41t-79 -139q0 -68 62 -114t201 -97q140 -52 173 -77q81 -61 95 -89q36 -70 36 -129q0 -164 -126 -244t-298 -80q-171 -1 -289 95t-110 280h129z" />
    <glyph glyph-name="uni021A" unicode="&#x21a;" 
d="M307 -102h176l-34 -164q-33 -139 -207 -150l12 58q82 14 94 69h-80zM141 1343l25 119h1143l-25 -119h-502l-293 -1343h-139l293 1343h-502z" />
    <glyph glyph-name="uni021B" unicode="&#x21b;" horiz-adv-x="606" 
d="M127 -102h176l-35 -164q-33 -139 -207 -150l13 58q82 14 94 69h-80zM291 96q74 0 151 13l-22 -113q-57 -8 -131 -8q-195 0 -195 151q0 43 15 109l145 700h-191l25 109h191l67 319h129l-67 -319h210l-20 -109h-215l-145 -678q-14 -70 -15 -100q0 -74 68 -74z" />
    <glyph glyph-name="circumflex" unicode="&#x2c6;" horiz-adv-x="378" 
d="M326 1421l-207 -217h-125l278 295h129l177 -295h-117z" />
    <glyph glyph-name="caron" unicode="&#x2c7;" horiz-adv-x="378" 
d="M315 1276l207 223h125l-278 -295h-129l-177 295h117z" />
    <glyph glyph-name="uni02C9" unicode="&#x2c9;" horiz-adv-x="378" 
d="M582 1307h-525l17 92h524z" />
    <glyph glyph-name="breve" unicode="&#x2d8;" horiz-adv-x="378" 
d="M319 1311q180 0 238 174h76q-19 -121 -109 -194t-213 -73t-193 74t-65 193h78q8 -174 188 -174z" />
    <glyph glyph-name="dotaccent" unicode="&#x2d9;" horiz-adv-x="378" 
d="M240 1247l39 209h131l-41 -209h-129z" />
    <glyph glyph-name="ring" unicode="&#x2da;" horiz-adv-x="378" 
d="M326 1257q53 0 94 41q41 40 41 94t-41 94t-94 40q-54 0 -94 -40t-40 -93t40 -95q41 -41 94 -41zM530 1391q0 -83 -59 -143t-143 -60t-145 61q-60 61 -60 143t60 143q61 60 143 60t143 -60t61 -144z" />
    <glyph glyph-name="ogonek" unicode="&#x2db;" horiz-adv-x="378" 
d="M125 -268q0 -55 51 -56q74 0 148 93l59 -52q-104 -133 -246 -133q-75 0 -113 35t-38 90q0 88 80 165t174 126h118q-233 -156 -233 -268z" />
    <glyph glyph-name="tilde" unicode="&#x2dc;" horiz-adv-x="378" 
d="M470 1249q-62 0 -165 56q-94 59 -130 59q-35 0 -63 -37t-36 -78h-84q55 207 190 207q49 0 144 -53q94 -61 133 -61t67 38q28 39 35 76h82q-18 -86 -59 -137q-52 -70 -114 -70z" />
    <glyph glyph-name="hungarumlaut" unicode="&#x2dd;" horiz-adv-x="378" 
d="M25 1204l237 295h166l-295 -295h-108zM328 1204l237 295h166l-295 -295h-108z" />
    <glyph glyph-name="uni0394" unicode="&#x394;" horiz-adv-x="1368" 
d="M1192 0h-1309l891 1458h137zM1034 117l-215 1206l-733 -1206h948z" />
    <glyph glyph-name="uni03A9" unicode="&#x3a9;" horiz-adv-x="1521" 
d="M1434 929q0 -251 -142 -424t-391 -218l-39 -185l406 -2l-23 -100h-506l80 371q92 12 148 30q164 57 253 201t89 336t-126 310t-329 118q-258 0 -437 -194t-179 -455q0 -145 76 -240q77 -94 218 -108l-79 -369h-492l23 100h383l43 193q-150 47 -224 161t-73 273
q0 299 223 524t522 226q250 -1 413 -149t163 -399z" />
    <glyph glyph-name="uni03BC" unicode="&#x3bc;" horiz-adv-x="1099" 
d="M170 268q0 -98 62 -144t159 -46q143 0 256 119t158 317l117 543h129l-228 -1057h-118l36 193h-4q-63 -99 -163 -161t-214 -63q-166 0 -247 84l-93 -444h-124l307 1448h129l-148 -682q-14 -57 -14 -107z" />
    <glyph glyph-name="pi" unicode="&#x3c0;" horiz-adv-x="1144" 
d="M805 137q0 -45 52 -45t101 23l-20 -95q-141 -61 -222 -6q-38 27 -38 70t18 139l138 643h-533l-182 -866h-121l182 866h-151l22 111h1086l-25 -111h-158l-133 -628q-16 -88 -16 -101z" />
    <glyph glyph-name="endash" unicode="&#x2013;" horiz-adv-x="1024" 
d="M975 504h-1024l24 119h1024z" />
    <glyph glyph-name="emdash" unicode="&#x2014;" horiz-adv-x="2048" 
d="M1757 623l-24 -119h-1516l25 119h1515z" />
    <glyph glyph-name="quoteleft" unicode="&#x2018;" horiz-adv-x="569" 
d="M555 1462l-16 -82q-45 -12 -76 -47t-41 -63t-25 -88h86l-49 -215h-172l68 284q25 96 73 142q50 44 152 69z" />
    <glyph glyph-name="quoteright" unicode="&#x2019;" horiz-adv-x="569" 
d="M225 965l17 82q44 12 74 46q30 33 41 65t26 87h-86l49 217h172l-67 -286q-25 -96 -74 -142q-50 -44 -152 -69z" />
    <glyph glyph-name="quotesinglbase" unicode="&#x201a;" horiz-adv-x="569" 
d="M-25 -281l17 82q45 12 75 46t41 66t25 87h-86l49 217h172l-67 -287q-25 -96 -75 -141t-151 -70z" />
    <glyph glyph-name="quotedblleft" unicode="&#x201c;" horiz-adv-x="757" 
d="M487 1462l-16 -82q-45 -12 -76 -47t-41 -63t-24 -88h86l-49 -215h-172l67 284q25 96 74 141t151 70zM801 1462l-17 -82q-46 -12 -76 -47t-40 -63t-25 -88h86l-49 -215h-172l67 284q25 96 74 142q50 44 152 69z" />
    <glyph glyph-name="quotedblright" unicode="&#x201d;" horiz-adv-x="757" 
d="M137 965l17 82q44 12 74 46q30 33 41 65t26 87h-86l49 217h172l-68 -286q-25 -96 -73 -142q-50 -44 -152 -69zM451 965l16 82q45 12 75 46q30 33 41 65t25 87h-86l49 217h172l-67 -286q-25 -96 -74 -141t-151 -70z" />
    <glyph glyph-name="quotedblbase" unicode="&#x201e;" horiz-adv-x="757" 
d="M-72 -281l17 82q45 12 75 46t40 66q11 32 26 87h-86l49 217h172l-67 -287q-24 -96 -74 -141t-152 -70zM242 -281l16 82q45 12 75 46t41 66t25 87h-86l49 217h173l-68 -287q-25 -96 -74 -141t-151 -70z" />
    <glyph glyph-name="dagger" unicode="&#x2020;" 
d="M676 901l-256 -1206h-129l256 1206h-410l25 109h409l97 452h129l-97 -452h404l-23 -109h-405z" />
    <glyph glyph-name="daggerdbl" unicode="&#x2021;" 
d="M381 96h-408l25 109h405l158 743h-407l22 109h410l86 405h129l-86 -405h401l-20 -109h-406l-158 -743h404l-21 -109h-405l-86 -401h-129z" />
    <glyph glyph-name="bullet" unicode="&#x2022;" horiz-adv-x="1024" 
d="M147 731q1 152 107 258q106 107 258 107t260 -106t107 -259q0 -151 -108 -259q-107 -108 -259 -108t-258 108q-106 107 -107 259z" />
    <glyph glyph-name="ellipsis" unicode="&#x2026;" horiz-adv-x="2048" 
d="M963 0h-172l47 217h174zM279 0h-173l48 217h174zM1647 0h-172l47 217h174z" />
    <glyph glyph-name="perthousand" unicode="&#x2030;" horiz-adv-x="2162" 
d="M1718 -31q-268 0 -268 273q0 170 94 295t262 125q127 0 193 -75q65 -75 65 -219t-95 -271q-95 -128 -251 -128zM1559 226q-1 -73 41 -119t120 -46q78 -1 134 57q102 105 102 278t-168 173q-78 0 -133 -60t-75 -135t-21 -148zM995 -31q-268 0 -268 273q0 170 94 295
t262 125q125 0 192 -75t67 -219t-96 -271q-95 -128 -251 -128zM836 226q0 -73 42 -119t119 -46q79 -1 135 57q102 103 101 277q0 174 -168 174q-78 0 -133 -60q-56 -60 -76 -135t-20 -148zM244 1010q0 -72 42 -118t119 -46q78 0 135 57q101 103 101 277t-168 174
q-78 0 -133 -61q-96 -105 -96 -283zM98 -66l1168 1547h112l-1169 -1547h-111zM403 754q-268 0 -268 272q0 170 94 295t263 125q126 0 192 -75t66 -219t-96 -270q-96 -128 -251 -128z" />
    <glyph glyph-name="guilsinglleft" unicode="&#x2039;" horiz-adv-x="530" 
d="M322 240l-218 286l31 131l326 232l-31 -139l-237 -172l153 -209z" />
    <glyph glyph-name="guilsinglright" unicode="&#x203a;" horiz-adv-x="530" 
d="M160 889l217 -287l-31 -131l-326 -231l31 139l238 172l-154 209z" />
    <glyph glyph-name="fraction" unicode="&#x2044;" horiz-adv-x="342" 
d="M-338 -70l909 1555h109l-909 -1555h-109z" />
    <glyph glyph-name="afii61289" unicode="&#x2113;" horiz-adv-x="1024" 
d="M825 1274q0 51 -25 85q-26 34 -65 34q-121 0 -172 -230l-104 -483q143 133 255 294q111 161 111 300zM928 1282q0 -170 -140 -357t-352 -360q-76 -326 -76 -386t34 -89t81 -29q86 0 205 86h4l33 -69q-139 -106 -268 -107q-92 0 -149 49q-56 49 -56 142q0 47 59 321
l-145 -127h-4l-35 68l209 172l114 545q35 168 115 252t174 84q93 -1 145 -55t52 -140z" />
    <glyph glyph-name="trademark" unicode="&#x2122;" horiz-adv-x="2027" 
d="M551 618h-109v752h-274v92h657v-92h-274v-752zM1083 618h-108v844h174l272 -684l265 684h174v-844h-109v746h-4l-299 -746h-62l-299 746h-4v-746z" />
    <glyph glyph-name="Omega" unicode="&#x2126;" horiz-adv-x="1521" 
d="M1434 929q0 -251 -142 -424t-391 -218l-39 -185l406 -2l-23 -100h-506l80 371q92 12 148 30q164 57 253 201t89 336t-126 310t-329 118q-258 0 -437 -194t-179 -455q0 -145 76 -240q77 -94 218 -108l-79 -369h-492l23 100h383l43 193q-150 47 -224 161t-73 273
q0 299 223 524t522 226q250 -1 413 -149t163 -399z" />
    <glyph glyph-name="estimated" unicode="&#x212e;" horiz-adv-x="1228" 
d="M322 604h596v297q-130 123 -302 123t-294 -123v-297zM322 530v-370q121 -121 296 -121q250 0 396 246l71 -43q-94 -147 -200 -212t-267 -65q-236 0 -382 162q-146 163 -146 405t146 403t382 161t382 -158t149 -408h-827z" />
    <glyph glyph-name="partialdiff" unicode="&#x2202;" horiz-adv-x="1001" 
d="M411 1370q-85 0 -133 -22t-112 -70l-68 82q128 117 278 117t252 -68q102 -67 153 -181q100 -218 100 -512q0 -293 -79 -467q-34 -75 -81 -138t-123 -99t-170 -37q-182 1 -292 135t-110 320t107 311q106 125 298 125t333 -180l2 115q0 202 -77 369q-40 88 -117 144
t-161 56zM428 760q-133 0 -209 -97t-76 -233t76 -246q76 -109 209 -108q226 0 303 332q19 77 23 157q-152 195 -326 195z" />
    <glyph glyph-name="Delta" unicode="&#x2206;" horiz-adv-x="1368" 
d="M1192 0h-1309l891 1458h137zM1034 117l-215 1206l-733 -1206h948z" />
    <glyph glyph-name="product" unicode="&#x220f;" horiz-adv-x="1449" 
d="M1303 -438h-123v1931h-910v-1931h-123v2048h1156v-2048z" />
    <glyph glyph-name="summation" unicode="&#x2211;" horiz-adv-x="1224" 
d="M1174 -438h-1121v104l678 926l-649 911v107h1067v-117h-911l643 -901l-680 -916h973v-114z" />
    <glyph glyph-name="minus" unicode="&#x2212;" horiz-adv-x="1228" 
d="M1130 569v-108h-1030v108h1030z" />
    <glyph glyph-name="uni2215" unicode="&#x2215;" horiz-adv-x="342" 
d="M-338 -70l909 1555h109l-909 -1555h-109z" />
    <glyph glyph-name="uni2219" unicode="&#x2219;" horiz-adv-x="569" 
d="M145 639q0 47 34 81t81 34t81 -34t34 -79t-34 -81t-80 -36t-81 34t-35 81z" />
    <glyph glyph-name="radical" unicode="&#x221a;" horiz-adv-x="997" 
d="M952 1610l-430 -2048h-123l-342 702l-92 -45l-45 92l195 95l331 -697l392 1901h114z" />
    <glyph glyph-name="infinity" unicode="&#x221e;" horiz-adv-x="1497" 
d="M1356 513q0 -126 -76 -210t-192 -84q-116 1 -205 59q-90 58 -191 158q-67 -67 -143 -120q-76 -54 -102 -64q-86 -33 -146 -33q-123 0 -200 82t-77 206t77 210t187 86t194 -56t210 -174l15 15q71 70 111 106t113 73q73 38 142 38q125 0 204 -83t79 -209zM1249 511
q0 81 -45 133t-114 52t-109 -22q-41 -22 -75 -47t-50 -38t-50 -45t-42 -38q21 -14 42 -34t43 -38t32 -25t47 -34q67 -47 150 -47t127 51t44 132zM131 505q0 -79 47 -128t127 -49q120 0 313 178q-18 14 -68 55t-82 66q-88 69 -168 68q-79 -1 -124 -56t-45 -134z" />
    <glyph glyph-name="integral" unicode="&#x222b;" horiz-adv-x="1105" 
d="M571 -9q0 -166 -39 -268q-61 -161 -202 -161q-49 0 -85 24t-36 62q0 37 19 54t55 17t55 -37q18 -38 37 -38q74 0 74 340v1048q0 16 -3 99t5 177q8 95 23 134t41 83q49 83 171 85q53 0 93 -24t40 -64q0 -76 -69 -76q-49 0 -66 41q-15 41 -39 41q-76 0 -76 -277l2 -125
v-1135z" />
    <glyph glyph-name="approxequal" unicode="&#x2248;" horiz-adv-x="1214" 
d="M264 688q-70 0 -112 -48t-52 -118h-86q45 276 248 277q92 0 298 -76t280 -76q133 0 164 164h81q-14 -117 -74 -195q-61 -78 -163 -78t-308 76q-206 74 -276 74zM267 350q-71 0 -113 -48t-56 -120h-84q45 276 248 277q92 0 295 -75t281 -75q131 0 166 162h81
q-14 -117 -74 -195q-61 -78 -163 -78t-306 76t-275 76z" />
    <glyph glyph-name="notequal" unicode="&#x2260;" horiz-adv-x="1214" 
d="M1061 252h-588l-156 -293l-96 51l129 242h-311v108h371l143 273h-514v110h573l160 299l94 -51l-133 -248h328v-110h-385l-146 -273h531v-108z" />
    <glyph glyph-name="lessequal" unicode="&#x2264;" horiz-adv-x="1214" 
d="M1063 145l-1024 392v120l1024 392v-121l-870 -330l870 -330v-123zM1063 -53h-1024v110h1024v-110z" />
    <glyph glyph-name="greaterequal" unicode="&#x2265;" horiz-adv-x="1214" 
d="M1063 537l-1024 -392v123l870 330l-870 330v121l1024 -392v-120zM1063 -53h-1024v110h1024v-110z" />
    <glyph glyph-name="lozenge" unicode="&#x25ca;" horiz-adv-x="1214" 
d="M1012 729l-346 -801h-119l-344 801l344 801h119zM891 729l-285 676l-282 -676l282 -676z" />
    <glyph glyph-name="commaaccent" unicode="&#xf004;" horiz-adv-x="569" 
d="M92 -102h176l-35 -164q-33 -139 -206 -150l12 58q82 14 94 69h-80z" />
    <glyph glyph-name="commaaccent" unicode="&#xf6c3;" horiz-adv-x="569" 
d="M92 -102h176l-35 -164q-33 -139 -206 -150l12 58q82 14 94 69h-80z" />
    <glyph glyph-name="dotlessj" unicode="&#xf6be;" horiz-adv-x="378" 
d="M-190 -391q-16 0 -48 5t-43 5l25 107l74 -9q94 1 125 107l262 1233h129l-264 -1237q-27 -109 -85 -160t-175 -51z" />
    <glyph glyph-name="dotlessj" unicode="&#xfb0f;" horiz-adv-x="378" 
d="M-190 -391q-16 0 -48 5t-43 5l25 107l74 -9q94 1 125 107l262 1233h129l-264 -1237q-27 -109 -85 -160t-175 -51z" />
    <glyph glyph-name="uniF8FF" unicode="&#xf8ff;" horiz-adv-x="1048" 
d="M1049 1470v-1470h-1049v1470h1049zM946 102v1264h-844v-1264h844zM524 1145q-145 0 -168 -195l-102 17q14 141 88 211t186 70t185 -74q72 -74 71 -195q0 -70 -26 -123t-103 -122q-76 -68 -88 -108t-12 -147h-94l-4 35q1 115 29 169t92 118q63 59 82 94q20 35 20 93
t-46 107q-46 50 -110 50zM455 240v137h114v-137h-114z" />
    <glyph glyph-name="fi" unicode="&#xfb01;" horiz-adv-x="909" 
d="M508 0l227 1057h129l-227 -1057h-129zM778 1255l45 207h129l-45 -207h-129zM301 1210q53 252 265 252q108 0 151 -14l-23 -107q-53 12 -80 13q-88 0 -128 -34t-58 -116l-31 -147h209l-24 -109h-207l-209 -948h-129l209 948h-185l25 109h182z" />
    <glyph glyph-name="fl" unicode="&#xfb02;" horiz-adv-x="909" 
d="M301 1210q53 252 265 252q108 0 151 -14l-23 -107q-53 12 -80 13q-88 0 -128 -34t-58 -116l-31 -147h209l-24 -109h-207l-209 -948h-129l209 948h-185l25 109h182zM508 0l315 1462h129l-315 -1462h-129z" />
    <glyph glyph-name="commaaccent.alt" horiz-adv-x="569" 
d="M383 1276h-176l35 164q33 139 207 149l-13 -57q-82 -14 -94 -70h80z" />
    <glyph glyph-name="caron.alt" horiz-adv-x="378" 
d="M254 1167l164 295h166l-230 -295h-100z" />
    <glyph glyph-name="grave.cap" horiz-adv-x="378" 
d="M137 1888h152l168 -295h-103z" />
    <glyph glyph-name="acute.cap" horiz-adv-x="378" 
d="M172 1593l238 295h165l-294 -295h-109z" />
    <glyph glyph-name="circumflex.cap" horiz-adv-x="378" 
d="M326 1810l-207 -217h-125l278 295h129l177 -295h-117z" />
    <glyph glyph-name="caron.cap" horiz-adv-x="378" 
d="M315 1665l207 223h125l-278 -295h-129l-177 295h117z" />
    <glyph glyph-name="tilde.cap" horiz-adv-x="378" 
d="M470 1638q-62 0 -165 56q-94 59 -130 59q-35 0 -63 -37t-36 -78h-84q55 207 190 207q49 0 144 -53q94 -61 133 -61q39 1 67 39t35 75h82q-18 -86 -59 -137q-52 -70 -114 -70z" />
    <glyph glyph-name="dieresis.cap" horiz-adv-x="378" 
d="M401 1636l39 209h131l-41 -209h-129zM76 1636l39 209h131l-41 -209h-129z" />
    <glyph glyph-name="macron.cap" horiz-adv-x="378" 
d="M582 1696h-525l17 92h524z" />
    <glyph glyph-name="breve.cap" horiz-adv-x="378" 
d="M319 1700q180 0 238 174h76q-19 -121 -109 -194q-90 -72 -213 -72t-193 74t-65 192h78q8 -174 188 -174z" />
    <glyph glyph-name="ring.cap" horiz-adv-x="378" 
d="M326 1626q53 0 94 41t41 94t-41 93t-94 40q-54 0 -94 -40t-40 -93t41 -94q40 -41 93 -41zM530 1760q0 -84 -59 -144t-143 -60t-144 62t-61 143q0 83 60 143q61 60 143 60t143 -60t61 -144z" />
    <glyph glyph-name="hungarumlaut.cap" horiz-adv-x="378" 
d="M25 1593l237 295h166l-295 -295h-108zM328 1593l237 295h166l-295 -295h-108z" />
    <glyph glyph-name="dotaccent.cap" horiz-adv-x="378" 
d="M240 1636l39 209h131l-41 -209h-129z" />
    </font>
</defs>
</svg>
